<svg width="74" height="74" viewBox="0 0 74 74" xmlns="http://www.w3.org/2000/svg" xmlns:xlink="http://www.w3.org/1999/xlink"><title>image-icon</title><defs><path d="M27.803 25H16.002a1 1 0 0 0-1.002.997v26.006c0 .557.448.997 1.002.997h41.996A1 1 0 0 0 59 52.003V25.997A.995.995 0 0 0 57.998 25h-11.8l-2.596-3.22c-.353-.437-1.076-.78-1.627-.78h-9.944c-.544 0-1.28.35-1.628.78l-2.6 3.22z" id="a"/><mask id="c" x="0" y="0" width="44" height="32" fill="#fff"><use xlink:href="#a"/></mask><circle id="b" cx="37" cy="39" r="11"/><mask id="d" x="0" y="0" width="22" height="22" fill="#fff"><use xlink:href="#b"/></mask></defs><g fill="none" fill-rule="evenodd"><path fill="#FBFBFC" d="M0 0h74v74H0z"/><use stroke="#DBDFE7" mask="url(#c)" stroke-width="4" fill="#FBFBFC" xlink:href="#a"/><path fill="#DBDFE7" d="M17 33h40v1H17z"/><use stroke="#DBDFE7" mask="url(#d)" stroke-width="2" fill="#FBFBFC" xlink:href="#b"/><path fill="#DBDFE7" d="M18 23h6v2h-6z"/><circle fill="#E4E7ED" cx="48.5" cy="30.5" r="1.5"/></g></svg>