<svg fill="none" height="24" viewBox="0 0 24 24" width="24" xmlns="http://www.w3.org/2000/svg"><g fill="#373240"><path d="m6.87611 9.73279c0-1.57755 1.27913-2.85668 2.85668-2.85668 1.23651 0 2.30241.81011 2.68611 1.91865l3.4749-3.4749-1.6628-1.66284c-.1919-.19187-.5117-.19187-.7035 0l-.8101.81009c-.4264-.23448-.8741-.42637-1.3644-.55428v-1.15119c0-.29846-.2345-.51164-.5116-.51164h-2.21715c-.29846 0-.51165.21318-.51165.51164v1.15119c-.49035.12791-.93803.3198-1.3644.55428l-.81011-.81009c-.19185-.19187-.51161-.19187-.7035 0l-1.55625 1.55627c-.19187.19185-.19187.51161 0 .7035l.81011.81011c-.23452.42634-.42637.87405-.55429 1.36436h-1.17252c-.29846 0-.51164.23453-.51164.51165v2.19579c0 .2985.21318.5117.51164.5117h1.15119c.12791.4903.3198.938.55428 1.3643l-.81009.8101c-.21319.1919-.19187.5117 0 .7036l1.66284 1.6628 3.4749-3.4749c-1.12987-.3411-1.91865-1.407-1.91865-2.64351z"/><path d="m16.3013 7.81406-7.59751 7.59744 3.27111 3.2711 7.5975-7.5974z"/><path d="m22.2894 7.40906-2.2811-2.30239c-.2771-.27712-.7035-.27712-.9806 0l-1.4923 1.49232 3.283 3.28305 1.4923-1.49232c.2558-.27712.2558-.72483-.0213-.98066z"/><path d="m6.64162 17.4927c-.08527.0853-.14925.2132-.19188.3411l-.6822 2.9633c-.10658.4903.3411.938.83145.8314l2.96325-.6822c.12791-.0213.23452-.0852.3411-.1919l.85276-.8527-3.26176-3.2617z"/></g></svg>