<svg xmlns="http://www.w3.org/2000/svg" width="541" height="512" viewBox="0 0 541 512"><g fill="none" fill-rule="evenodd"><path fill="#FFF" d="M0 0h541v512H0z"/><g transform="translate(350 455)"><rect width="167" height="33" fill="#15BE53" rx="16.5"/><path fill="#FFF" fill-rule="nonzero" d="M20.44 21.16c2.3 0 4.21-1.3 4.21-3.48 0-2.35-2.1-2.79-3.8-3.16-1.42-.31-2.2-.48-2.2-1.32 0-.78.73-1.29 1.78-1.29 1.2 0 2.04.6 2.66 1.48l1.46-1.42a4.87 4.87 0 0 0-4.07-1.9c-2.23 0-4 1.29-4 3.34 0 2.13 1.74 2.64 3.34 3.02 1.63.36 2.64.49 2.64 1.48 0 .91-.82 1.41-1.95 1.41a3.88 3.88 0 0 1-3.13-1.75l-1.51 1.46c.87 1.31 2.76 2.13 4.57 2.13zm8.33-.07c.53 0 .98-.04 1.35-.12v-1.74c-.27.03-.42.04-.72.04-.61 0-.99-.09-.99-.76v-3.65h1.6v-1.75h-1.6v-2.25h-2.07v2.25h-1.05v1.76h1.05v4.08c0 1.62.84 2.14 2.43 2.14zm4.96.05c1.03 0 1.83-.32 2.34-.88.34.66 1.15.93 2.48.74v-1.57c-.46.05-.64-.08-.64-.5v-3.22c0-1.84-1.2-2.75-3.2-2.75-1.87 0-3.07 1.08-3.43 2.41l2 .38c.17-.7.58-1.05 1.36-1.05.87 0 1.21.42 1.21 1.1v.11l-1.96.38c-1.59.29-2.85.95-2.85 2.52 0 1.4 1.14 2.33 2.69 2.33zm.42-1.6c-.63 0-1.04-.31-1.04-.85 0-.63.51-.86 1.2-.99l1.54-.31v.8c0 .89-.82 1.36-1.7 1.36zM42.04 21v-4c0-1.22.84-1.9 1.94-1.9.25 0 .43.02.67.05V13.1c-.15-.02-.3-.04-.51-.04-.98 0-1.76.47-2.1 1.16v-1.11h-2.1V21h2.1zm6.76.09c.52 0 .97-.04 1.35-.12v-1.74c-.27.03-.42.04-.73.04-.61 0-.98-.09-.98-.76v-3.65h1.6v-1.75h-1.6v-2.25h-2.07v2.25h-1.05v1.76h1.05v4.08c0 1.62.84 2.14 2.43 2.14zm9.6.07c2.3 0 4.22-1.3 4.22-3.48 0-2.35-2.1-2.79-3.81-3.16-1.41-.31-2.19-.48-2.19-1.32 0-.78.72-1.29 1.77-1.29 1.2 0 2.04.6 2.67 1.48l1.45-1.42a4.87 4.87 0 0 0-4.06-1.9c-2.23 0-4 1.29-4 3.34 0 2.13 1.73 2.64 3.34 3.02 1.62.36 2.64.49 2.64 1.48 0 .91-.83 1.41-1.95 1.41a3.88 3.88 0 0 1-3.13-1.75l-1.52 1.46c.87 1.31 2.76 2.13 4.58 2.13zm8.2 0c1 0 1.7-.46 2.13-.97V21h2.1v-7.89h-2.1v4.64c0 1.02-.72 1.55-1.45 1.55-.88 0-1.27-.57-1.27-1.44v-4.75h-2.1v5.22c0 1.71 1.06 2.84 2.69 2.84zm10.48 0c2.17 0 3.43-1.86 3.43-4.1 0-2.24-1.26-4.1-3.44-4.1-.98 0-1.73.39-2.2.96v-3.69h-2.1V21h2.1v-.81c.46.58 1.21.97 2.2.97zm-.5-1.8c-1 0-1.75-.75-1.75-2.08v-.44c0-1.35.75-2.08 1.75-2.08 1.19 0 1.81.95 1.81 2.3 0 1.36-.63 2.3-1.81 2.3zm8.25 1.8c1.9 0 3.42-1.02 3.42-2.66 0-1.79-1.63-2.1-3.01-2.39-.97-.2-1.5-.29-1.5-.8 0-.43.44-.71 1.1-.71.82 0 1.58.37 2.11 1.04l1.2-1.32c-.62-.79-1.86-1.36-3.26-1.36-1.89 0-3.22 1.05-3.22 2.56 0 1.7 1.41 2.03 2.69 2.29 1.25.24 1.84.31 1.84.91 0 .57-.62.81-1.32.81-.88 0-1.84-.46-2.38-1.2l-1.31 1.34c.72.97 2.22 1.5 3.64 1.5zm8.3 0c1.84 0 3.06-1.07 3.43-2.36l-1.82-.82c-.2.82-.72 1.41-1.59 1.41-1.11 0-1.84-.85-1.84-2.34 0-1.46.73-2.34 1.84-2.34.87 0 1.4.6 1.59 1.41l1.79-.84c-.38-1.27-1.58-2.32-3.4-2.32-2.29 0-3.91 1.66-3.91 4.1 0 2.44 1.62 4.1 3.92 4.1zm6.73-.16v-4c0-1.22.84-1.9 1.94-1.9.25 0 .43.02.67.05V13.1c-.15-.02-.3-.04-.51-.04-.97 0-1.75.47-2.1 1.16v-1.11h-2.1V21h2.1zm6.08-8.82v-1.95h-2.14v1.95h2.14zm-.02 8.82v-7.89h-2.1V21h2.1zm4.03 2.67v-3.48c.47.58 1.22.97 2.2.97 2.18 0 3.44-1.86 3.44-4.1 0-2.24-1.26-4.1-3.44-4.1-.98 0-1.73.39-2.2.96v-.81h-2.1v10.56h2.1zm1.71-4.3c-1 0-1.75-.76-1.75-2.09v-.44c0-1.35.75-2.08 1.75-2.08 1.19 0 1.81.95 1.81 2.3 0 1.36-.63 2.3-1.81 2.3zm8.03 1.72c.53 0 .98-.04 1.35-.12v-1.74c-.27.03-.42.04-.72.04-.61 0-.99-.09-.99-.76v-3.65h1.6v-1.75h-1.6v-2.25h-2.07v2.25h-1.05v1.76h1.05v4.08c0 1.62.84 2.14 2.43 2.14zm4.92-8.91v-1.95h-2.14v1.95h2.14zM124.6 21v-7.89h-2.1V21h2.1zm5.33.16c2.28 0 3.87-1.64 3.87-4.1 0-2.45-1.59-4.1-3.87-4.1-2.28 0-3.87 1.65-3.87 4.1 0 2.46 1.59 4.1 3.87 4.1zm0-1.73c-1.1 0-1.78-.88-1.78-2.38 0-1.48.69-2.35 1.78-2.35 1.1 0 1.77.87 1.77 2.36 0 1.5-.67 2.37-1.77 2.37zm7.44 1.57v-4.56c0-1.04.72-1.56 1.46-1.56.9 0 1.26.63 1.26 1.51V21h2.1v-5.2c0-1.71-1-2.84-2.66-2.84-1 0-1.72.45-2.16.96v-.81h-2.1V21h2.1zm9.56.16c1.9 0 3.42-1.02 3.42-2.66 0-1.79-1.63-2.1-3.01-2.39-.97-.2-1.5-.29-1.5-.8 0-.43.44-.71 1.1-.71.82 0 1.59.37 2.11 1.04l1.2-1.32c-.62-.79-1.86-1.36-3.25-1.36-1.9 0-3.23 1.05-3.23 2.56 0 1.7 1.41 2.03 2.69 2.29 1.25.24 1.84.31 1.84.91 0 .57-.62.81-1.32.81-.88 0-1.84-.46-2.38-1.2l-1.31 1.34c.72.97 2.22 1.5 3.65 1.5z"/></g><g fill="#15BE53" transform="translate(254 455)"><rect width="80" height="33" opacity=".12" rx="16.5"/><path fill-rule="nonzero" d="M21.43 21.16a4.36 4.36 0 0 0 4.4-3.18l-2.07-.68c-.3 1.2-1.16 1.93-2.33 1.93-1.65 0-2.8-1.43-2.8-3.62 0-2.18 1.15-3.61 2.8-3.61 1.17 0 2.02.73 2.32 1.94l2.07-.7a4.36 4.36 0 0 0-4.39-3.18c-2.91 0-5.02 2.3-5.02 5.55 0 3.26 2.11 5.55 5.02 5.55zm7.85-.02c1.04 0 1.83-.32 2.34-.88.34.66 1.15.93 2.49.74v-1.57c-.46.05-.64-.08-.64-.5v-3.22c0-1.84-1.2-2.75-3.2-2.75-1.88 0-3.07 1.08-3.43 2.41l1.99.38c.18-.7.59-1.05 1.37-1.05.87 0 1.21.42 1.21 1.1v.11l-1.96.38c-1.6.29-2.86.95-2.86 2.52 0 1.4 1.14 2.33 2.69 2.33zm.42-1.6c-.63 0-1.04-.31-1.04-.85 0-.63.52-.86 1.2-.99l1.55-.31v.8c0 .89-.82 1.36-1.71 1.36zM37.6 21v-4.56c0-1.04.71-1.56 1.45-1.56.9 0 1.26.63 1.26 1.51V21h2.1v-5.2c0-1.71-1-2.84-2.65-2.84-1.01 0-1.73.45-2.16.96v-.81h-2.1V21h2.1zm10.14.16c1.83 0 3.06-1.07 3.42-2.36l-1.81-.82c-.2.82-.73 1.41-1.6 1.41-1.1 0-1.84-.85-1.84-2.34 0-1.46.74-2.34 1.85-2.34.87 0 1.39.6 1.59 1.41l1.78-.84c-.38-1.27-1.58-2.32-3.39-2.32-2.3 0-3.91 1.66-3.91 4.1 0 2.44 1.62 4.1 3.91 4.1zm8.07 0a3.6 3.6 0 0 0 3.48-2.25l-1.77-.63c-.24.77-.88 1.16-1.69 1.16-1.03 0-1.77-.72-1.92-1.92h5.43v-.61c0-2.21-1.26-3.95-3.6-3.95-2.23 0-3.84 1.77-3.84 4.1 0 2.44 1.59 4.1 3.91 4.1zm1.45-5.07h-3.27c.25-.96.9-1.45 1.73-1.45 1.02 0 1.52.67 1.54 1.45zM62.89 21V10.23h-2.1V21h2.1z"/></g><g transform="translate(24 311)"><g fill-rule="nonzero"><path fill="#0A2540" d="M267.31 82v-1.68h-5.4v-3.03h4.54v-1.68h-4.54v-2.7h5.4v-1.68h-7.29V82h7.29zm3.4 0v-4.62c0-1.13.79-1.73 1.56-1.73.96 0 1.32.71 1.32 1.68V82h1.8v-4.62c0-1.13.79-1.73 1.56-1.73.96 0 1.32.71 1.32 1.68V82h1.8v-5.19c0-1.7-1.05-2.83-2.67-2.83-1.22 0-1.97.58-2.45 1.09a2.37 2.37 0 0 0-2.09-1.1c-1.05 0-1.72.47-2.16 1v-.84h-1.8V82h1.8zm13.47.13c1.02 0 1.84-.32 2.34-.88.27.64.96.9 2.27.75v-1.4c-.5.07-.7-.07-.7-.52v-3.39c0-1.81-1.14-2.71-3.03-2.71a3.26 3.26 0 0 0-3.28 2.32l1.7.39c.2-.76.65-1.16 1.51-1.16.96 0 1.35.47 1.35 1.22v.14l-2.18.45c-1.51.31-2.64.97-2.64 2.47 0 1.41 1.16 2.32 2.66 2.32zm.27-1.43c-.69 0-1.14-.35-1.14-.96 0-.71.57-.95 1.34-1.11l1.69-.36v.96c0 .96-.93 1.47-1.89 1.47zm7.64-7.62v-1.85h-1.86v1.84h1.86zm-.03 8.92v-7.88h-1.8V82h1.8zm3.89 0V71.23h-1.8V82h1.8zm7.21-8.92v-1.85h-1.86v1.84h1.86zm-.03 8.92v-7.88h-1.8V82h1.8zm3.89 0v-4.62c0-1.13.82-1.73 1.63-1.73 1 0 1.38.71 1.38 1.68V82h1.8v-5.19c0-1.7-.99-2.83-2.64-2.83-1.02 0-1.72.46-2.17.99v-.84h-1.8V82h1.8zm10.47 0l2.88-7.88h-1.86l-1.9 5.72-1.92-5.71h-1.89l2.88 7.87h1.81zm7.16.17c2.22 0 3.8-1.65 3.8-4.1 0-2.44-1.58-4.1-3.8-4.1-2.22 0-3.79 1.66-3.79 4.1 0 2.45 1.57 4.1 3.8 4.1zm0-1.52c-1.21 0-1.98-.97-1.98-2.58 0-1.6.77-2.58 1.98-2.58 1.22 0 1.98.98 1.98 2.58s-.76 2.58-1.98 2.58zm7.22-7.58v-1.84h-1.86v1.84h1.86zm-.03 8.93v-7.88h-1.8V82h1.8zm5.47.17c1.71 0 2.91-1.01 3.31-2.28l-1.54-.78c-.23.87-.81 1.5-1.77 1.5-1.23 0-2.07-.93-2.07-2.54 0-1.6.84-2.55 2.07-2.55.96 0 1.54.65 1.77 1.5l1.51-.82c-.42-1.26-1.59-2.22-3.28-2.22-2.25 0-3.87 1.66-3.87 4.09 0 2.43 1.62 4.1 3.87 4.1zm7.94 0c1.57 0 2.82-.83 3.37-2.21l-1.54-.58c-.24.8-.95 1.26-1.83 1.26-1.16 0-1.97-.83-2.1-2.18h5.52v-.6c0-2.16-1.22-3.88-3.5-3.88-2.19 0-3.75 1.78-3.75 4.09 0 2.43 1.58 4.1 3.83 4.1zm1.6-5.06h-3.61c.27-1.06.99-1.62 1.92-1.62 1.14 0 1.68.75 1.7 1.62zm6.16 5.06c1.78 0 3.24-1.02 3.24-2.61 0-1.8-1.68-2.09-3.02-2.37-.99-.21-1.56-.32-1.56-.89 0-.53.48-.86 1.22-.86.87 0 1.62.41 2.07 1.11l1.21-1.09c-.57-.87-1.8-1.49-3.18-1.49-1.81 0-3.07 1.05-3.07 2.5 0 1.67 1.42 1.99 2.67 2.24 1.24.26 1.9.33 1.9 1.01 0 .7-.7.97-1.47.97-.91 0-1.81-.5-2.28-1.27l-1.35 1.08c.71 1.08 2.16 1.66 3.62 1.66zm10.58-.08c.47 0 .92-.04 1.25-.1v-1.52c-.27.03-.44.04-.74.04-.64 0-1.05-.07-1.05-.78v-4.08h1.65v-1.53h-1.65v-2.3h-1.77v2.3h-1.09v1.53h1.1v4.37c0 1.6.8 2.07 2.3 2.07zm6.02.08c2.22 0 3.8-1.65 3.8-4.1 0-2.44-1.58-4.1-3.8-4.1-2.22 0-3.79 1.66-3.79 4.1 0 2.45 1.57 4.1 3.8 4.1zm0-1.52c-1.21 0-1.98-.97-1.98-2.58 0-1.6.77-2.58 1.98-2.58 1.22 0 1.98.98 1.98 2.58s-.76 2.58-1.98 2.58zm12.06 1.52c1.71 0 2.91-1.01 3.31-2.28l-1.54-.78c-.23.87-.81 1.5-1.77 1.5-1.23 0-2.07-.93-2.07-2.54 0-1.6.84-2.55 2.07-2.55.96 0 1.54.65 1.77 1.5l1.51-.82c-.42-1.26-1.59-2.22-3.28-2.22-2.25 0-3.87 1.66-3.87 4.09 0 2.43 1.62 4.1 3.87 4.1zm7.22 0c1.02 0 1.7-.48 2.14-1.01V82h1.8v-7.87h-1.8v4.68c0 1.12-.8 1.72-1.62 1.72-.97 0-1.39-.62-1.39-1.58v-4.83h-1.8v5.22c0 1.7 1.02 2.82 2.67 2.82zm8.82 0c1.79 0 3.24-1.02 3.24-2.61 0-1.8-1.68-2.09-3.01-2.37-.99-.21-1.56-.32-1.56-.89 0-.53.48-.86 1.21-.86.87 0 1.62.41 2.07 1.11l1.22-1.09c-.57-.87-1.8-1.49-3.18-1.49-1.82 0-3.08 1.05-3.08 2.5 0 1.67 1.43 1.99 2.67 2.24 1.25.26 1.91.33 1.91 1.01 0 .7-.7.97-1.47.97-.92 0-1.82-.5-2.28-1.27l-1.35 1.08c.7 1.08 2.16 1.66 3.61 1.66zm7.3-.08c.46 0 .91-.04 1.24-.1v-1.52c-.27.03-.43.04-.73.04-.65 0-1.05-.07-1.05-.78v-4.08h1.65v-1.53h-1.65v-2.3h-1.77v2.3h-1.1v1.53h1.1v4.37c0 1.6.81 2.07 2.31 2.07zm6.02.08c2.22 0 3.8-1.65 3.8-4.1 0-2.44-1.58-4.1-3.8-4.1-2.22 0-3.8 1.66-3.8 4.1 0 2.45 1.58 4.1 3.8 4.1zm0-1.52c-1.22 0-1.98-.97-1.98-2.58 0-1.6.76-2.58 1.98-2.58 1.21 0 1.98.98 1.98 2.58s-.77 2.58-1.98 2.58zm7.19 1.35v-4.62c0-1.13.8-1.73 1.56-1.73.96 0 1.32.71 1.32 1.68V82h1.8v-4.62c0-1.13.8-1.73 1.56-1.73.96 0 1.32.71 1.32 1.68V82h1.8v-5.19c0-1.7-1.05-2.83-2.67-2.83-1.22 0-1.97.58-2.45 1.09a2.37 2.37 0 0 0-2.08-1.1c-1.05 0-1.73.47-2.16 1v-.84h-1.8V82h1.8zm14.72.17c1.57 0 2.82-.83 3.37-2.21l-1.54-.58c-.24.8-.95 1.26-1.83 1.26-1.16 0-1.97-.83-2.1-2.18h5.52v-.6c0-2.16-1.22-3.88-3.5-3.88-2.19 0-3.75 1.78-3.75 4.09 0 2.43 1.58 4.1 3.83 4.1zm1.6-5.06h-3.61c.27-1.06.99-1.62 1.92-1.62 1.14 0 1.68.75 1.7 1.62zm5.17 4.89v-4.14c0-1.26.87-2 2.01-2 .25 0 .43.02.66.05v-1.8c-.14-.01-.3-.03-.51-.03-1 0-1.82.48-2.16 1.22v-1.17h-1.8V82h1.8zm6.75.17c1.79 0 3.24-1.02 3.24-2.61 0-1.8-1.68-2.09-3.01-2.37-.99-.21-1.56-.32-1.56-.89 0-.53.48-.86 1.21-.86.87 0 1.62.41 2.07 1.11l1.22-1.09c-.57-.87-1.8-1.49-3.18-1.49-1.82 0-3.08 1.05-3.08 2.5 0 1.67 1.43 1.99 2.67 2.24 1.25.26 1.91.33 1.91 1.01 0 .7-.7.97-1.47.97-.92 0-1.82-.5-2.28-1.27l-1.35 1.08c.7 1.08 2.16 1.66 3.61 1.66zm10.59-.08c.46 0 .91-.04 1.24-.1v-1.52c-.27.03-.43.04-.73.04-.65 0-1.05-.07-1.05-.78v-4.08h1.65v-1.53h-1.65v-2.3h-1.77v2.3h-1.1v1.53h1.1v4.37c0 1.6.81 2.07 2.31 2.07zm6.02.08c2.22 0 3.8-1.65 3.8-4.1 0-2.44-1.58-4.1-3.8-4.1-2.22 0-3.8 1.66-3.8 4.1 0 2.45 1.58 4.1 3.8 4.1zm0-1.52c-1.22 0-1.98-.97-1.98-2.58 0-1.6.76-2.58 1.98-2.58 1.21 0 1.98.98 1.98 2.58s-.77 2.58-1.98 2.58zM261.74 108.7v-3.52c.5.58 1.25.99 2.27.99 2.2 0 3.46-1.86 3.46-4.1 0-2.23-1.26-4.1-3.46-4.1-1.02 0-1.77.41-2.27 1v-.84h-1.8v10.57h1.8zm1.91-4.11c-1.11 0-1.95-.83-1.95-2.28v-.46c0-1.49.84-2.3 1.95-2.3 1.3 0 2.01 1.02 2.01 2.52s-.7 2.52-2.01 2.52zm7.5 1.55c1.02 0 1.85-.33 2.34-.89.27.64.96.9 2.27.75v-1.4c-.5.06-.69-.07-.69-.52v-3.39c0-1.82-1.14-2.72-3.03-2.72a3.26 3.26 0 0 0-3.29 2.33l1.7.39c.21-.77.66-1.16 1.51-1.16.96 0 1.35.47 1.35 1.22v.13l-2.17.45c-1.52.32-2.64.98-2.64 2.48 0 1.41 1.15 2.32 2.65 2.32zm.27-1.44c-.69 0-1.14-.35-1.14-.96 0-.71.57-.95 1.34-1.11l1.7-.36v.96c0 .96-.94 1.47-1.9 1.47zm6.31 4.06c1.63 0 2.32-.83 2.77-2.02l3.24-8.61h-1.86l-1.89 5.52-1.93-5.52h-1.89l2.86 7.59-.3.73c-.25.63-.54.8-1.14.8a4.2 4.2 0 0 1-.6-.05v1.52c.26.03.36.04.74.04zm13.5-2.76l1.43-5.16 1.44 5.16h1.56l2.37-7.88h-1.78l-1.4 5.22-1.4-5.22h-1.49l-1.4 5.22-1.42-5.22h-1.85l2.37 7.88h1.56zm9.81-8.93v-1.84h-1.86v1.84h1.86zm-.03 8.93v-7.88h-1.8V106h1.8zm4.56.09c.47 0 .92-.05 1.25-.1v-1.52c-.27.03-.44.05-.74.05-.64 0-1.05-.08-1.05-.78v-4.08h1.65v-1.53h-1.65v-2.31h-1.77v2.3h-1.09v1.54h1.1v4.36c0 1.6.8 2.07 2.3 2.07zm4.6-.09v-4.62c0-1.13.82-1.72 1.63-1.72 1 0 1.38.7 1.38 1.68V106h1.8v-5.19c0-1.7-.99-2.83-2.64-2.83-1.02 0-1.72.46-2.17.99v-3.74h-1.8V106h1.8z"/><path fill="#15BE53" d="M322.3 106v-4.17h2.38c2.4 0 3.9-1.16 3.9-3.3 0-2.18-1.5-3.3-3.9-3.3h-4.3V106h1.92zm2.28-5.82h-2.28v-3.3h2.28c1.38 0 2.12.59 2.12 1.65 0 1.05-.74 1.65-2.12 1.65zm8.36 5.98c1.58 0 2.82-.82 3.38-2.2l-1.55-.59c-.24.81-.94 1.26-1.83 1.26-1.15 0-1.96-.82-2.1-2.17h5.52v-.6c0-2.16-1.22-3.89-3.5-3.89-2.19 0-3.75 1.79-3.75 4.1 0 2.43 1.58 4.1 3.83 4.1zm1.6-5.05h-3.61c.27-1.07.99-1.62 1.92-1.62 1.14 0 1.68.75 1.7 1.62zm5.17 4.89v-4.14c0-1.26.87-2 2.01-2 .26 0 .44.02.66.05v-1.8c-.13-.02-.3-.03-.51-.03-1 0-1.81.48-2.16 1.21v-1.17h-1.8V106h1.8zm6.28 0v-6.35h1.6v-1.53h-1.6v-.37c0-.9.39-1.11 1.09-1.11l.54.01v-1.57c-.33-.02-.46-.02-.75-.02-1.77 0-2.68.92-2.68 2.55v.51h-1.1v1.53h1.1V106h1.8zm6.09.16c1.58 0 2.82-.82 3.38-2.2l-1.55-.59c-.24.81-.94 1.26-1.83 1.26-1.15 0-1.96-.82-2.1-2.17h5.52v-.6c0-2.16-1.21-3.89-3.5-3.89-2.18 0-3.74 1.79-3.74 4.1 0 2.43 1.57 4.1 3.82 4.1zm1.6-5.05h-3.61c.27-1.07.99-1.62 1.92-1.62 1.14 0 1.68.75 1.7 1.62zm6.75 5.05c1.7 0 2.9-1 3.31-2.28l-1.54-.78c-.23.87-.81 1.5-1.77 1.5-1.23 0-2.07-.93-2.07-2.53 0-1.6.84-2.55 2.07-2.55.96 0 1.54.64 1.77 1.5l1.51-.82c-.42-1.27-1.59-2.23-3.28-2.23-2.25 0-3.87 1.67-3.87 4.1 0 2.43 1.62 4.1 3.87 4.1zm7.08-.07c.47 0 .92-.05 1.25-.1v-1.52c-.27.03-.44.04-.74.04-.64 0-1.05-.07-1.05-.78v-4.08h1.65v-1.53h-1.65v-2.3h-1.77v2.3h-1.1v1.53h1.1v4.37c0 1.6.81 2.07 2.31 2.07zm8.08-.09v-4.17h1.74l2.63 4.17h2.19l-2.78-4.32c1.58-.38 2.5-1.46 2.5-3.15 0-2.18-1.5-3.3-3.9-3.3h-4.3V106h1.92zm2.28-5.82h-2.28v-3.3h2.28c1.38 0 2.12.59 2.12 1.65 0 1.05-.74 1.65-2.12 1.65zm8.9 5.98c1.58 0 2.82-.82 3.38-2.2l-1.55-.59c-.24.81-.94 1.26-1.83 1.26-1.15 0-1.96-.82-2.1-2.17h5.52v-.6c0-2.16-1.21-3.89-3.5-3.89-2.18 0-3.74 1.79-3.74 4.1 0 2.43 1.57 4.1 3.82 4.1zm1.6-5.05h-3.61c.27-1.07.99-1.62 1.92-1.62 1.14 0 1.68.75 1.7 1.62zm6.75 5.05c1.7 0 2.9-1 3.31-2.28l-1.54-.78c-.23.87-.81 1.5-1.77 1.5-1.23 0-2.07-.93-2.07-2.53 0-1.6.84-2.55 2.07-2.55.96 0 1.54.64 1.77 1.5l1.51-.82c-.42-1.27-1.59-2.23-3.28-2.23-2.25 0-3.87 1.67-3.87 4.1 0 2.43 1.62 4.1 3.87 4.1zm7.94 0c1.57 0 2.82-.82 3.37-2.2l-1.54-.59c-.24.81-.95 1.26-1.83 1.26-1.16 0-1.97-.82-2.1-2.17h5.52v-.6c0-2.16-1.22-3.89-3.5-3.89-2.19 0-3.75 1.79-3.75 4.1 0 2.43 1.58 4.1 3.83 4.1zm1.6-5.05h-3.61c.27-1.07.99-1.62 1.92-1.62 1.14 0 1.68.75 1.69 1.62zm5.2-4.04v-1.84H408v1.84h1.86zm-.03 8.93v-7.88h-1.8V106h1.8zm5.87 0l2.88-7.88h-1.86l-1.91 5.72-1.92-5.71H411l2.88 7.87h1.82zm5.84.13c1.02 0 1.84-.33 2.34-.88.27.64.96.9 2.26.75v-1.4c-.5.06-.69-.07-.69-.52v-3.39c0-1.82-1.14-2.72-3.03-2.72a3.26 3.26 0 0 0-3.28 2.33l1.69.39c.21-.77.66-1.16 1.52-1.16.96 0 1.35.47 1.35 1.22v.13l-2.18.45c-1.51.32-2.64.98-2.64 2.48 0 1.41 1.16 2.32 2.66 2.32zm.27-1.44c-.7 0-1.14-.34-1.14-.96 0-.7.57-.94 1.33-1.1l1.7-.37v.96c0 .96-.93 1.47-1.9 1.47zm9.87 1.47c2.2 0 3.47-1.86 3.47-4.09 0-2.23-1.26-4.1-3.47-4.1-1.02 0-1.77.41-2.26 1v-3.74h-1.8V106h1.8v-.83c.49.59 1.24 1 2.26 1zm-.36-1.57c-1.11 0-1.95-.83-1.95-2.28v-.47c0-1.48.84-2.29 1.95-2.29 1.3 0 2.01 1.02 2.01 2.52s-.7 2.52-2.01 2.52zm7.22 1.41V95.23h-1.8V106h1.8zm5.42.16c1.58 0 2.82-.82 3.38-2.2l-1.55-.59c-.24.81-.94 1.26-1.83 1.26-1.15 0-1.96-.82-2.1-2.17h5.52v-.6c0-2.16-1.21-3.89-3.5-3.89-2.18 0-3.74 1.79-3.74 4.1 0 2.43 1.57 4.1 3.82 4.1zm1.6-5.05h-3.61c.27-1.07.99-1.62 1.92-1.62 1.14 0 1.68.75 1.7 1.62zm6.16 5.05c1.79 0 3.24-1.02 3.24-2.6 0-1.8-1.68-2.09-3.01-2.38-1-.2-1.56-.31-1.56-.88 0-.53.48-.86 1.21-.86.87 0 1.62.41 2.07 1.11l1.22-1.09c-.57-.87-1.8-1.49-3.18-1.49-1.82 0-3.08 1.05-3.08 2.5 0 1.67 1.43 1.99 2.67 2.24 1.25.26 1.9.33 1.9 1.01 0 .7-.7.97-1.46.97-.92 0-1.82-.5-2.28-1.27l-1.35 1.08c.7 1.08 2.16 1.66 3.61 1.66z"/></g><circle cx="237" cy="77" r="10" fill="#E1EAF2"/><path fill="#364657" fill-rule="nonzero" d="M261.54 42v-8.87l3.28 8.87h1.16l3.3-8.87V42h1.33V31.23h-1.9l-3.29 8.85-3.27-8.85h-1.96V42h1.35zm13.56.13c1.06 0 1.94-.4 2.41-1.02.17.76.86 1.04 2.06.89v-1.08c-.52.12-.84-.05-.84-.55v-3.83c0-1.68-1.08-2.53-2.84-2.53-1.6 0-2.75.91-3.13 2.19l1.28.32c.23-.87.82-1.33 1.81-1.33 1.05 0 1.54.51 1.54 1.41v.33l-1.9.39c-1.75.36-2.97 1-2.97 2.56 0 1.41 1.16 2.25 2.58 2.25zm.16-1.09c-.85 0-1.4-.45-1.4-1.21 0-.95.8-1.28 2-1.52l1.53-.33v1.35c0 1-.97 1.71-2.13 1.71zm8.55 1.13c1.68 0 3.04-1 3.04-2.5 0-1.7-1.55-1.98-2.9-2.29-1.09-.24-1.78-.38-1.78-1.11 0-.7.6-1.16 1.5-1.16.99 0 1.72.5 2.13 1.28l.96-.77c-.46-.92-1.62-1.61-3.03-1.61-1.67 0-2.88.97-2.88 2.37 0 1.6 1.35 1.88 2.64 2.17 1.29.27 2.04.39 2.04 1.25 0 .85-.81 1.24-1.72 1.24a2.62 2.62 0 0 1-2.4-1.47l-1.06.77c.6 1.21 2.03 1.82 3.45 1.82zm7.21-.1c.46 0 .85-.04 1.19-.12V40.8c-.31.08-.54.09-.85.09-.7 0-1.1-.15-1.1-.98v-4.6h1.79v-1.16h-1.79v-2.29h-1.33v2.3h-1.22v1.15h1.22v4.81c0 1.5.76 1.96 2.1 1.96zm6.09.1c1.56 0 2.74-.86 3.22-2.26l-1.19-.41c-.24.92-.99 1.5-2.03 1.5-1.37 0-2.31-1.05-2.39-2.7h5.67v-.45c0-2.18-1.15-3.84-3.34-3.84-2.13 0-3.62 1.73-3.62 4.08 0 2.41 1.5 4.07 3.68 4.07zm1.91-4.91h-4.22c.24-1.34 1.09-2.1 2.23-2.1 1.37 0 1.97.99 2 2.1zm4.6 4.74v-4.29c0-1.38.92-2.28 2.06-2.28.25 0 .43.02.65.06v-1.37a5.04 5.04 0 0 0-.53-.02 2.3 2.3 0 0 0-2.18 1.39v-1.34h-1.35V42h1.35zm7.25.16c1.63 0 2.77-.98 3.15-2.29l-1.2-.55c-.22.97-.87 1.66-1.95 1.66-1.4 0-2.36-1.11-2.36-2.9 0-1.8.97-2.9 2.36-2.9 1.08 0 1.73.7 1.95 1.66l1.17-.59a3.08 3.08 0 0 0-3.12-2.24c-2.19 0-3.7 1.65-3.7 4.08 0 2.41 1.51 4.07 3.7 4.07zm6.89-.02c1.06 0 1.94-.41 2.42-1.02.16.75.85 1.03 2.05.88v-1.08c-.53.12-.84-.05-.84-.55v-3.83c0-1.68-1.08-2.53-2.83-2.53-1.61 0-2.76.91-3.14 2.19l1.27.32c.25-.87.83-1.33 1.82-1.33 1.05 0 1.55.51 1.55 1.41v.33l-1.91.39c-1.75.36-2.97 1-2.97 2.56 0 1.41 1.15 2.25 2.58 2.25zm.17-1.1c-.86 0-1.42-.45-1.42-1.21 0-.95.81-1.28 2.01-1.52l1.54-.33v1.35c0 1-.98 1.71-2.13 1.71zm7.3.96v-4.29c0-1.38.92-2.28 2.06-2.28.25 0 .44.02.66.06v-1.37a5.04 5.04 0 0 0-.54-.02 2.3 2.3 0 0 0-2.18 1.39v-1.34h-1.35V42h1.36zm7.01.16c1.1 0 1.97-.52 2.44-1.3V42h1.34V31.23h-1.34v4.07a2.77 2.77 0 0 0-2.44-1.3c-2.17 0-3.42 1.85-3.42 4.09 0 2.21 1.25 4.07 3.43 4.07zm.25-1.18c-1.48 0-2.3-1.21-2.3-2.9s.82-2.89 2.3-2.89c1.1 0 2.21.8 2.21 2.63v.55c0 1.8-1.1 2.61-2.21 2.61zm11.25-1.08a2.2 2.2 0 0 0 2.27-2.27c0-1.35-.99-2.29-2.26-2.29-1.28 0-2.29.94-2.29 2.3 0 1.31 1.01 2.26 2.29 2.26zm6.28 0a2.2 2.2 0 0 0 2.27-2.27c0-1.35-1-2.29-2.27-2.29s-2.28.94-2.28 2.3c0 1.31 1 2.26 2.28 2.26zm6.28 0a2.2 2.2 0 0 0 2.26-2.27c0-1.35-.99-2.29-2.26-2.29-1.28 0-2.29.94-2.29 2.3 0 1.31 1.01 2.26 2.29 2.26zm6.27 0a2.2 2.2 0 0 0 2.26-2.27c0-1.35-.98-2.29-2.26-2.29-1.27 0-2.28.94-2.28 2.3 0 1.31 1 2.26 2.28 2.26zm13.36 2.1v-2.8h2.1V38h-2.08v-6.77h-1.83l-4.73 6.84v1.13h5.2V42h1.34zm-1.35-4h-3.72l3.72-5.39v5.38zm10.67 4v-2.8h2.1V38h-2.09v-6.77h-1.82l-4.73 6.84v1.13h5.2V42h1.34zm-1.35-4h-3.72l3.72-5.39v5.38zm10.67 4v-2.8h2.1V38h-2.09v-6.77h-1.82l-4.73 6.84v1.13h5.2V42h1.34zm-1.35-4h-3.72l3.72-5.39v5.38zm10.67 4v-2.8h2.1V38h-2.09v-6.77h-1.82l-4.73 6.84v1.13h5.2V42h1.34zm-1.35-4h-3.72l3.72-5.39v5.38z"/><path fill="#0A2540" fill-rule="nonzero" d="M264.42 18.16a4.3 4.3 0 0 0 4.3-3.1l-1.8-.62c-.33 1.27-1.25 2.03-2.5 2.03-1.78 0-3.04-1.53-3.04-3.85 0-2.33 1.26-3.86 3.04-3.86 1.25 0 2.17.77 2.5 2.03l1.8-.62a4.3 4.3 0 0 0-4.3-3.1c-2.87 0-4.96 2.28-4.96 5.54 0 3.28 2.09 5.55 4.96 5.55zm7.53-.16v-4.62c0-1.13.82-1.73 1.63-1.73 1 0 1.38.71 1.38 1.69V18h1.8v-5.19c0-1.7-.99-2.84-2.63-2.84-1.02 0-1.73.47-2.18 1V7.22h-1.8V18h1.8zm8.93.14c1.02 0 1.85-.34 2.34-.89.27.64.96.9 2.26.75v-1.4c-.49.06-.69-.07-.69-.52v-3.39c0-1.81-1.14-2.71-3.03-2.71a3.26 3.26 0 0 0-3.28 2.32l1.7.39c.2-.76.65-1.15 1.51-1.15.96 0 1.35.46 1.35 1.21v.13l-2.18.46c-1.51.31-2.63.97-2.63 2.47 0 1.41 1.15 2.33 2.65 2.33zm.27-1.45c-.69 0-1.14-.34-1.14-.96 0-.7.57-.94 1.34-1.1l1.69-.37v.96c0 .96-.93 1.47-1.89 1.47zm7.61 1.31v-4.14c0-1.26.87-2 2.01-2 .25 0 .44.02.66.05v-1.8c-.13-.01-.3-.03-.51-.03-1 0-1.81.48-2.16 1.21v-1.16h-1.8V18h1.8zm6.98 2.86c2.25 0 3.84-1.33 3.84-3.66v-7.07h-1.8v.83a2.78 2.78 0 0 0-2.22-.99c-2.16 0-3.45 1.76-3.45 3.92s1.29 3.91 3.45 3.91c1 0 1.8-.43 2.22-.98v.55c0 1.44-.82 2.04-2.04 2.04-.99 0-1.67-.55-1.9-1.44l-1.69.6c.5 1.53 1.78 2.3 3.59 2.3zm.16-4.63c-1.24 0-1.97-.88-1.97-2.34 0-1.47.73-2.34 1.97-2.34 1.13 0 1.91.82 1.91 2.26V14c0 1.41-.78 2.24-1.9 2.24zm9.12 1.93c1.57 0 2.81-.82 3.37-2.2l-1.54-.59c-.25.81-.95 1.27-1.84 1.27-1.15 0-1.96-.83-2.1-2.18h5.52v-.6c0-2.16-1.21-3.88-3.49-3.88-2.19 0-3.75 1.78-3.75 4.09 0 2.43 1.57 4.1 3.82 4.1zm1.6-5.05H303c.27-1.06 1-1.62 1.93-1.62 1.13 0 1.68.75 1.69 1.62zm8.45 7.59v-3.52c.5.58 1.25.98 2.27.98 2.2 0 3.47-1.86 3.47-4.09 0-2.23-1.26-4.1-3.47-4.1-1.02 0-1.77.41-2.26 1v-.85h-1.8V20.7h1.8zm1.91-4.11c-1.11 0-1.95-.82-1.95-2.28v-.46c0-1.49.84-2.3 1.95-2.3 1.3 0 2.01 1.02 2.01 2.52s-.7 2.52-2.01 2.52zm7.5 1.55c1.02 0 1.85-.34 2.34-.89.28.64.97.9 2.27.75v-1.4c-.5.06-.69-.07-.69-.52v-3.39c0-1.81-1.14-2.71-3.03-2.71a3.26 3.26 0 0 0-3.29 2.32l1.7.39c.21-.76.66-1.15 1.52-1.15.95 0 1.34.46 1.34 1.21v.13l-2.17.46c-1.52.31-2.64.97-2.64 2.47 0 1.41 1.16 2.33 2.66 2.33zm.27-1.45c-.69 0-1.13-.34-1.13-.96 0-.7.56-.94 1.33-1.1l1.7-.37v.96c0 .96-.94 1.47-1.9 1.47zm6.31 4.07c1.63 0 2.32-.83 2.77-2.03l3.25-8.6h-1.87l-1.88 5.51-1.94-5.52h-1.89l2.87 7.6-.3.73c-.26.63-.55.8-1.14.8a4.2 4.2 0 0 1-.6-.05v1.52c.25.03.36.04.73.04zm8.99-2.76v-4.62c0-1.13.8-1.73 1.56-1.73.96 0 1.32.71 1.32 1.69V18h1.8v-4.62c0-1.13.8-1.73 1.56-1.73.96 0 1.32.71 1.32 1.69V18h1.8v-5.19c0-1.7-1.05-2.84-2.67-2.84-1.22 0-1.97.59-2.44 1.1a2.37 2.37 0 0 0-2.09-1.1c-1.05 0-1.72.47-2.16 1v-.85h-1.8V18h1.8zm14.72.16c1.58 0 2.82-.82 3.38-2.2l-1.55-.59c-.24.81-.95 1.27-1.83 1.27-1.15 0-1.96-.83-2.1-2.18h5.52v-.6c0-2.16-1.21-3.88-3.5-3.88-2.19 0-3.75 1.78-3.75 4.09 0 2.43 1.58 4.1 3.83 4.1zm1.6-5.05h-3.61c.27-1.06.99-1.62 1.92-1.62 1.14 0 1.68.75 1.7 1.62zm5.17 4.89v-4.62c0-1.13.82-1.73 1.63-1.73 1 0 1.38.71 1.38 1.69V18h1.8v-5.19c0-1.7-.99-2.84-2.64-2.84-1.01 0-1.72.47-2.17 1v-.85h-1.8V18h1.8zm9.32.09c.46 0 .91-.04 1.25-.1v-1.52c-.28.03-.44.05-.74.05-.64 0-1.05-.08-1.05-.79v-4.08h1.65v-1.53h-1.65v-2.3h-1.77v2.3h-1.1v1.54h1.1v4.36c0 1.6.81 2.07 2.31 2.07zm7.88-.09v-4.62c0-1.13.8-1.73 1.56-1.73.96 0 1.32.71 1.32 1.69V18h1.8v-4.62c0-1.13.8-1.73 1.56-1.73.96 0 1.32.71 1.32 1.69V18h1.8v-5.19c0-1.7-1.05-2.84-2.67-2.84-1.21 0-1.96.59-2.44 1.1a2.37 2.37 0 0 0-2.09-1.1c-1.04 0-1.72.47-2.15 1v-.85h-1.8V18h1.8zm14.72.16c1.58 0 2.83-.82 3.38-2.2l-1.54-.59c-.25.81-.95 1.27-1.84 1.27-1.15 0-1.96-.83-2.1-2.18h5.52v-.6c0-2.16-1.21-3.88-3.49-3.88-2.19 0-3.75 1.78-3.75 4.09 0 2.43 1.57 4.1 3.82 4.1zm1.61-5.05h-3.62c.28-1.06 1-1.62 1.93-1.62 1.13 0 1.68.75 1.69 1.62zm5.84 4.98c.46 0 .91-.04 1.24-.1v-1.52c-.26.03-.43.05-.73.05-.65 0-1.05-.08-1.05-.79v-4.08h1.65v-1.53h-1.65v-2.3h-1.77v2.3h-1.1v1.54h1.1v4.36c0 1.6.81 2.07 2.31 2.07zm4.6-.09v-4.62c0-1.13.82-1.73 1.63-1.73.99 0 1.38.71 1.38 1.69V18h1.8v-5.19c0-1.7-.99-2.84-2.64-2.84-1.02 0-1.73.47-2.18 1V7.22h-1.8V18h1.8zm10.14.16c2.22 0 3.8-1.64 3.8-4.09s-1.58-4.1-3.8-4.1c-2.22 0-3.8 1.65-3.8 4.1 0 2.45 1.58 4.1 3.8 4.1zm0-1.51c-1.21 0-1.98-.97-1.98-2.58 0-1.6.76-2.58 1.98-2.58s1.98.97 1.98 2.58c0 1.6-.76 2.58-1.98 2.58zm8.36 1.52c1.02 0 1.77-.41 2.26-1V18h1.8V7.23h-1.8v3.73a2.86 2.86 0 0 0-2.26-.99c-2.2 0-3.46 1.87-3.46 4.1 0 2.23 1.25 4.1 3.46 4.1zm.36-1.58c-1.3 0-2.01-1.02-2.01-2.52s.7-2.52 2.01-2.52c1.11 0 1.95.81 1.95 2.3v.46c0 1.46-.84 2.28-1.95 2.28zm12.38 1.57c2.23 0 3.8-1.64 3.8-4.09s-1.57-4.1-3.8-4.1c-2.21 0-3.79 1.65-3.79 4.1 0 2.45 1.58 4.1 3.8 4.1zm0-1.51c-1.21 0-1.98-.97-1.98-2.58 0-1.6.77-2.58 1.99-2.58 1.21 0 1.98.97 1.98 2.58 0 1.6-.77 2.58-1.99 2.58zm7.2 1.35v-4.62c0-1.13.82-1.73 1.63-1.73.99 0 1.38.71 1.38 1.69V18h1.8v-5.19c0-1.7-.99-2.84-2.64-2.84-1.02 0-1.73.47-2.18 1v-.85h-1.8V18h1.8zm12.14 0v-6.35h1.6v-1.53h-1.6v-.37c0-.9.39-1.11 1.1-1.11l.54.01V7.08l-.75-.01c-1.78 0-2.69.91-2.69 2.54v.52h-1.1v1.52h1.1V18h1.8zm4.67-8.93V7.23h-1.86v1.84h1.86zm-.03 8.93v-7.88h-1.8V18h1.8zm3.89 0V7.23h-1.8V18h1.8zm5.42.16c1.57 0 2.82-.82 3.38-2.2l-1.55-.59c-.24.81-.94 1.27-1.83 1.27-1.16 0-1.97-.83-2.1-2.18h5.52v-.6c0-2.16-1.21-3.88-3.5-3.88-2.19 0-3.75 1.78-3.75 4.09 0 2.43 1.58 4.1 3.83 4.1zm1.6-5.05h-3.61c.27-1.06.99-1.62 1.92-1.62 1.14 0 1.68.75 1.7 1.62z"/><circle cx="237" cy="13" r="7" fill="#FFF" stroke="#15BE53" stroke-width="6"/><path fill="#0A2540" fill-rule="nonzero" d="M5.57 18c2.21 0 3.61-1.11 3.61-3 0-1.32-.75-2.25-1.88-2.61.75-.3 1.54-.99 1.54-2.33 0-1.83-1.23-2.83-3.54-2.83H1.01V18h4.54zm-.46-6.31H2.87V8.85h2.26c1.22 0 1.9.46 1.9 1.41s-.67 1.43-1.9 1.43zm.35 4.69h-2.6v-3.07h2.6c1.21 0 1.88.63 1.88 1.53 0 .91-.67 1.54-1.88 1.54zm7.1-7.3V7.22H10.7v1.84h1.86zM12.53 18v-7.88h-1.8V18h1.8zm3.89 0V7.23h-1.8V18h1.8zm3.89 0V7.23h-1.8V18h1.8zm3.92-8.93V7.23h-1.86v1.84h1.86zM24.2 18v-7.88h-1.8V18h1.8zm3.89 0v-4.62c0-1.13.82-1.73 1.64-1.73.98 0 1.38.71 1.38 1.69V18h1.8v-5.19c0-1.7-1-2.84-2.64-2.84-1.02 0-1.73.47-2.18 1v-.85h-1.8V18h1.8zm10.01 2.86c2.25 0 3.84-1.33 3.84-3.66v-7.07h-1.8v.83a2.78 2.78 0 0 0-2.22-.99c-2.16 0-3.45 1.76-3.45 3.92s1.29 3.91 3.45 3.91c1 0 1.8-.43 2.22-.98v.55c0 1.44-.83 2.04-2.04 2.04-.99 0-1.66-.55-1.9-1.44l-1.69.6c.5 1.53 1.77 2.3 3.59 2.3zm.16-4.63c-1.24 0-1.98-.88-1.98-2.34 0-1.47.74-2.34 1.98-2.34 1.13 0 1.91.82 1.91 2.26V14c0 1.41-.78 2.24-1.9 2.24z"/></g><path fill="#ECF2F8" d="M24 294h493v1H24z"/><g fill-rule="nonzero"><path fill="#15BE53" d="M432.98 216l.91-2.46h4.66l.93 2.46h1.93l-4.08-10.77h-2.18L431.08 216h1.9zm4.94-4.14h-3.4l1.69-4.5 1.7 4.5zm7.45 4.3c1.02 0 1.77-.4 2.27-.98v.82h1.8v-10.77h-1.8v3.73a2.86 2.86 0 0 0-2.26-.99c-2.21 0-3.47 1.86-3.47 4.1 0 2.23 1.26 4.1 3.46 4.1zm.37-1.57c-1.31 0-2.01-1.02-2.01-2.52s.7-2.52 2-2.52c1.12 0 1.95.81 1.95 2.3v.46c0 1.46-.83 2.28-1.94 2.28zm8.76 1.58c1.02 0 1.77-.41 2.26-1v.83h1.8v-10.77h-1.8v3.73a2.86 2.86 0 0 0-2.26-.99c-2.2 0-3.46 1.86-3.46 4.1 0 2.23 1.25 4.1 3.46 4.1zm.36-1.58c-1.3 0-2.01-1.02-2.01-2.52s.7-2.52 2.01-2.52c1.11 0 1.95.81 1.95 2.3v.46c0 1.46-.84 2.28-1.95 2.28zm13.56 1.58a4.3 4.3 0 0 0 4.3-3.11l-1.8-.61c-.33 1.26-1.25 2.02-2.5 2.02-1.78 0-3.04-1.53-3.04-3.85 0-2.33 1.26-3.86 3.04-3.86 1.25 0 2.17.77 2.5 2.03l1.8-.62a4.3 4.3 0 0 0-4.3-3.1c-2.87 0-4.96 2.28-4.96 5.55s2.09 5.55 4.96 5.55zm9.03 0c2.22 0 3.8-1.65 3.8-4.1 0-2.44-1.58-4.1-3.8-4.1-2.22 0-3.8 1.66-3.8 4.1 0 2.45 1.58 4.1 3.8 4.1zm0-1.52c-1.21 0-1.98-.97-1.98-2.58 0-1.6.76-2.58 1.98-2.58s1.98.98 1.98 2.58-.76 2.58-1.98 2.58zm8 1.52c1.02 0 1.7-.48 2.15-1.01v.84h1.8v-7.87h-1.8v4.68c0 1.12-.81 1.72-1.63 1.72-.97 0-1.39-.61-1.39-1.57v-4.83h-1.8v5.22c0 1.69 1.02 2.82 2.67 2.82zm7.84 2.53v-3.52c.49.58 1.24.99 2.26.99 2.2 0 3.46-1.86 3.46-4.1 0-2.23-1.25-4.1-3.46-4.1-1.02 0-1.77.41-2.26 1v-.84h-1.8v10.57h1.8zm1.9-4.11c-1.11 0-1.95-.82-1.95-2.28v-.46c0-1.49.84-2.3 1.95-2.3 1.3 0 2.01 1.02 2.01 2.52s-.7 2.52-2.01 2.52zm8.72 1.58c2.22 0 3.8-1.65 3.8-4.1 0-2.44-1.58-4.1-3.8-4.1-2.22 0-3.8 1.66-3.8 4.1 0 2.45 1.58 4.1 3.8 4.1zm0-1.52c-1.22 0-1.98-.97-1.98-2.58 0-1.6.76-2.58 1.98-2.58 1.21 0 1.98.98 1.98 2.58s-.76 2.58-1.98 2.58zm7.19 1.35v-4.62c0-1.12.82-1.72 1.63-1.72 1 0 1.38.7 1.38 1.68V216h1.8v-5.19c0-1.7-.99-2.83-2.64-2.83-1.02 0-1.72.46-2.17.99v-.84h-1.8V216h1.8zm-48.09 28l.92-2.46h4.64l.94 2.46h1.93l-4.08-10.77h-2.18L461.12 244h1.9zm4.94-4.14h-3.4l1.69-4.5 1.7 4.5zm7.45 4.3c1.03 0 1.78-.4 2.27-.98v.82h1.8v-10.77h-1.8v3.74a2.86 2.86 0 0 0-2.27-1c-2.2 0-3.46 1.86-3.46 4.1 0 2.23 1.26 4.1 3.46 4.1zm.37-1.57c-1.31 0-2.01-1.02-2.01-2.52s.7-2.52 2-2.52c1.12 0 1.95.81 1.95 2.3v.46c0 1.46-.83 2.28-1.94 2.28zm8.76 1.58c1.02 0 1.77-.41 2.27-1v.83h1.8v-10.77h-1.8v3.74a2.86 2.86 0 0 0-2.27-1c-2.2 0-3.46 1.86-3.46 4.1 0 2.23 1.25 4.1 3.46 4.1zm.36-1.58c-1.3 0-2.01-1.02-2.01-2.52s.7-2.52 2.01-2.52c1.11 0 1.95.81 1.95 2.3v.46c0 1.46-.84 2.28-1.95 2.28zm13.75 1.41v-9.09h3.47v-1.68h-8.86v1.68h3.47V244h1.92zm5.35.14c1.01 0 1.84-.33 2.33-.89.28.65.97.9 2.27.75v-1.4c-.5.07-.69-.07-.69-.52v-3.39c0-1.81-1.14-2.71-3.03-2.71a3.26 3.26 0 0 0-3.29 2.32l1.7.39c.21-.77.66-1.16 1.52-1.16.95 0 1.34.47 1.34 1.22v.13l-2.17.45c-1.52.32-2.64.98-2.64 2.48 0 1.41 1.16 2.32 2.66 2.32zm.26-1.44c-.69 0-1.13-.35-1.13-.96 0-.71.56-.95 1.33-1.11l1.7-.36v.95c0 .96-.94 1.47-1.9 1.47zm6.82 1.3l1.85-2.73 1.85 2.73h2.03l-2.79-4.08 2.58-3.8h-1.97l-1.64 2.46-1.63-2.46h-2.04l2.58 3.8-2.77 4.08h1.95zm-54.02 28l.91-2.46h4.65l.93 2.46h1.94l-4.09-10.77h-2.17L455.14 272h1.9zm4.93-4.14h-3.39l1.68-4.5 1.71 4.5zm7.46 4.3c1.02 0 1.77-.4 2.26-.99v.83h1.8v-10.77h-1.8v3.74a2.86 2.86 0 0 0-2.26-1c-2.2 0-3.46 1.86-3.46 4.1 0 2.24 1.25 4.1 3.46 4.1zm.36-1.57c-1.3 0-2.01-1.02-2.01-2.52s.7-2.52 2.01-2.52c1.11 0 1.95.81 1.95 2.3v.46c0 1.46-.84 2.28-1.95 2.28zm8.76 1.58c1.02 0 1.77-.41 2.27-1v.83h1.8v-10.77h-1.8v3.74a2.86 2.86 0 0 0-2.26-1c-2.21 0-3.47 1.86-3.47 4.1 0 2.24 1.26 4.1 3.46 4.1zm.37-1.58c-1.31 0-2.01-1.02-2.01-2.52s.7-2.52 2-2.52c1.12 0 1.95.81 1.95 2.3v.46c0 1.46-.83 2.28-1.94 2.28zm13.75 1.41v-9.09h3.46v-1.68h-8.85v1.68h3.46V272h1.93zm5.2 0v-4.14c0-1.26.88-2 2.01-2 .26 0 .44.02.67.05v-1.8c-.14-.02-.3-.03-.51-.03-1.01 0-1.82.48-2.17 1.22v-1.17h-1.8V272h1.8zm5.95-8.92v-1.85h-1.86v1.84h1.86zm-.03 8.92v-7.88H502V272h1.8zm4.18.14c1.01 0 1.84-.33 2.33-.89.27.64.96.9 2.27.75v-1.4c-.5.06-.69-.07-.69-.52v-3.39c0-1.81-1.14-2.71-3.03-2.71a3.26 3.26 0 0 0-3.29 2.32l1.7.39c.21-.77.66-1.16 1.51-1.16.96 0 1.35.47 1.35 1.22v.14l-2.17.44c-1.52.32-2.64.98-2.64 2.48 0 1.41 1.15 2.33 2.65 2.33zm.26-1.45c-.69 0-1.13-.34-1.13-.95 0-.71.56-.95 1.33-1.11l1.7-.36v.95c0 .96-.94 1.47-1.9 1.47zm7.62 1.31v-10.77h-1.8V272h1.8z"/><path fill="#364657" d="M256.4 216.16a4.18 4.18 0 0 0 4.16-3l-1.37-.45c-.39 1.37-1.4 2.18-2.79 2.18-2 0-3.4-1.72-3.4-4.27s1.4-4.28 3.4-4.28c1.4 0 2.4.81 2.79 2.18l1.36-.45c-.63-1.86-2.1-3-4.15-3-2.79 0-4.84 2.26-4.84 5.55 0 3.28 2.05 5.55 4.84 5.55zm8.91 0c2.15 0 3.65-1.65 3.65-4.08s-1.5-4.08-3.65-4.08c-2.14 0-3.64 1.65-3.64 4.08s1.5 4.08 3.64 4.08zm0-1.15c-1.38 0-2.28-1.14-2.28-2.93 0-1.8.9-2.94 2.28-2.94s2.28 1.14 2.28 2.94c0 1.79-.9 2.93-2.28 2.93zm8.11 1.15c1.11 0 1.87-.58 2.32-1.24V216h1.35v-7.85h-1.34v4.73c0 1.3-1 2.04-1.97 2.04-1.16 0-1.63-.75-1.63-1.86v-4.9h-1.36v5.18c0 1.67.95 2.82 2.63 2.82zm7.46 2.54v-3.84c.47.78 1.33 1.3 2.43 1.3 2.18 0 3.42-1.86 3.42-4.08 0-2.23-1.25-4.08-3.42-4.08-1.1 0-1.96.53-2.43 1.3v-1.15h-1.35v10.55h1.35zm2.19-3.72c-1.11 0-2.22-.81-2.22-2.61v-.56c0-1.83 1.11-2.62 2.22-2.62 1.47 0 2.3 1.2 2.3 2.9 0 1.67-.83 2.89-2.3 2.89zm8.68 1.18c2.14 0 3.64-1.65 3.64-4.08s-1.5-4.08-3.64-4.08c-2.15 0-3.65 1.65-3.65 4.08s1.5 4.08 3.64 4.08zm0-1.15c-1.38 0-2.29-1.14-2.29-2.93 0-1.8.9-2.94 2.29-2.94 1.38 0 2.27 1.14 2.27 2.94 0 1.79-.9 2.93-2.27 2.93zm6.9.99v-4.68c0-1.3.99-2.05 1.97-2.05 1.17 0 1.63.82 1.63 1.91V216h1.35v-5.18c0-1.66-.95-2.82-2.61-2.82a2.8 2.8 0 0 0-2.34 1.22v-1.07h-1.35V216h1.35zm-42.31 28v-9.51h3.65v-1.26h-8.74v1.26h3.65V244h1.44zm5.69.13c1.07 0 1.94-.4 2.42-1.02.16.75.85 1.04 2.05.89v-1.08c-.52.12-.84-.04-.84-.55v-3.83c0-1.68-1.08-2.53-2.83-2.53-1.61 0-2.76.91-3.14 2.19l1.28.33c.24-.87.82-1.34 1.81-1.34 1.05 0 1.55.51 1.55 1.41v.33l-1.91.39c-1.75.36-2.97 1-2.97 2.56 0 1.41 1.16 2.25 2.58 2.25zm.17-1.09c-.86 0-1.41-.45-1.41-1.21 0-.95.8-1.28 2-1.52l1.54-.33v1.35c0 1-.98 1.71-2.13 1.71zm6.45.96l2.16-3.09 2.18 3.09h1.53l-2.88-4.1 2.62-3.75h-1.48l-1.92 2.75-1.9-2.74h-1.54l2.63 3.75-2.87 4.09h1.47zm-12.31 28v-9.51h3.65v-1.26h-8.73v1.26h3.64V272h1.44zm5.18 0v-4.29c0-1.38.92-2.28 2.06-2.28.25 0 .43.01.66.06v-1.36a5.04 5.04 0 0 0-.54-.03 2.3 2.3 0 0 0-2.18 1.39v-1.33h-1.35V272h1.35zm5.81-9.21v-1.56h-1.47v1.56h1.47zm-.06 9.21v-7.84h-1.35V272h1.35zm4.42.14c1.06 0 1.93-.41 2.41-1.03.16.75.86 1.04 2.06.89v-1.08c-.53.12-.84-.05-.84-.56v-3.82c0-1.68-1.08-2.54-2.84-2.54-1.6 0-2.76.92-3.13 2.2l1.27.33c.24-.88.82-1.34 1.81-1.34 1.06 0 1.55.51 1.55 1.41v.33l-1.9.39c-1.76.36-2.97 1-2.97 2.56 0 1.41 1.15 2.25 2.58 2.25zm.16-1.1c-.85 0-1.41-.45-1.41-1.22 0-.94.81-1.27 2.01-1.51l1.53-.33v1.35c0 1-.97 1.71-2.13 1.71zm7.31.96v-10.77h-1.35V272h1.35z"/><path fill="#0A2540" d="M29.48 216.16c2.9 0 5-2.28 5-5.55s-2.1-5.55-5-5.55c-2.91 0-5.01 2.28-5.01 5.55s2.1 5.55 5 5.55zm0-1.69c-1.82 0-3.1-1.51-3.1-3.85s1.28-3.86 3.1-3.86c1.81 0 3.09 1.52 3.09 3.86s-1.28 3.85-3.1 3.85zm8.42 4.23v-3.52c.49.58 1.24.98 2.26.98 2.2 0 3.47-1.86 3.47-4.09 0-2.23-1.27-4.1-3.47-4.1-1.02 0-1.77.41-2.27 1v-.84h-1.8v10.57h1.8zm1.9-4.11c-1.11 0-1.95-.83-1.95-2.28v-.47c0-1.48.84-2.29 1.95-2.29 1.3 0 2.01 1.02 2.01 2.52s-.7 2.52-2.01 2.52zm7.9 1.5c.46 0 .91-.05 1.24-.1v-1.52c-.27.03-.43.04-.73.04-.65 0-1.05-.07-1.05-.78v-4.08h1.65v-1.53h-1.65v-2.3h-1.77v2.3h-1.1v1.53h1.1v4.37c0 1.6.8 2.07 2.3 2.07zm4.62-9.02v-1.84h-1.86v1.84h1.86zm-.03 8.93v-7.88h-1.8V216h1.8zm5.39.16c2.22 0 3.8-1.65 3.8-4.09 0-2.45-1.58-4.1-3.8-4.1-2.22 0-3.8 1.65-3.8 4.1 0 2.45 1.58 4.1 3.8 4.1zm0-1.51c-1.21 0-1.98-.98-1.98-2.58s.77-2.58 1.98-2.58c1.22 0 1.98.97 1.98 2.58 0 1.6-.76 2.58-1.98 2.58zm7.19 1.35v-4.62c0-1.13.83-1.73 1.64-1.73.98 0 1.38.71 1.38 1.68V216h1.8v-5.19c0-1.7-1-2.84-2.64-2.84-1.02 0-1.73.47-2.18 1v-.85h-1.8V216h1.8zm9.64.16c1.78 0 3.23-1.02 3.23-2.6 0-1.8-1.67-2.09-3.01-2.38-.99-.2-1.56-.31-1.56-.88 0-.53.48-.86 1.22-.86.87 0 1.62.41 2.07 1.11l1.21-1.09c-.57-.87-1.8-1.49-3.18-1.49-1.81 0-3.07 1.05-3.07 2.5 0 1.67 1.42 1.99 2.67 2.24 1.24.26 1.9.33 1.9 1.01 0 .7-.7.97-1.47.97-.91 0-1.81-.5-2.28-1.27l-1.35 1.08c.7 1.08 2.16 1.66 3.62 1.66z"/></g><path fill="#ECF2F8" d="M24 181h493v1H24z"/><path fill="#364657" fill-rule="nonzero" d="M285.53 159v-8.87l3.29 8.87h1.16l3.3-8.87V159h1.33v-10.77h-1.9l-3.29 8.85-3.27-8.85h-1.96V159h1.35zm14.74.16c1.56 0 2.74-.85 3.22-2.25l-1.18-.42c-.24.93-.99 1.5-2.04 1.5-1.37 0-2.31-1.05-2.39-2.7h5.67v-.44c0-2.18-1.15-3.84-3.34-3.84-2.13 0-3.61 1.74-3.61 4.08 0 2.41 1.5 4.08 3.67 4.08zm1.92-4.9h-4.23c.24-1.34 1.1-2.1 2.23-2.1 1.37 0 1.97.99 2 2.1zm5.55 4.82c.45 0 .84-.05 1.19-.13v-1.15c-.31.07-.54.09-.85.09-.7 0-1.1-.15-1.1-.98v-4.6h1.78v-1.16h-1.78v-2.29h-1.34v2.3h-1.21v1.15h1.21v4.82c0 1.5.77 1.95 2.1 1.95zm6.09.08c1.56 0 2.74-.85 3.22-2.25l-1.19-.42c-.24.93-.99 1.5-2.04 1.5-1.36 0-2.3-1.05-2.38-2.7h5.67v-.44c0-2.18-1.16-3.84-3.35-3.84-2.13 0-3.61 1.74-3.61 4.08 0 2.41 1.5 4.08 3.68 4.08zm1.92-4.9h-4.23c.24-1.34 1.09-2.1 2.23-2.1 1.36 0 1.97.99 2 2.1zm4.59 4.74v-4.29c0-1.38.92-2.28 2.06-2.28.25 0 .43.02.66.06v-1.37a5.04 5.04 0 0 0-.54-.03 2.3 2.3 0 0 0-2.18 1.4v-1.34h-1.35V159h1.35zm7.22.16c1.56 0 2.75-.85 3.23-2.25l-1.19-.42c-.24.93-.99 1.5-2.04 1.5-1.36 0-2.31-1.05-2.38-2.7h5.67v-.44c0-2.18-1.16-3.84-3.35-3.84-2.13 0-3.61 1.74-3.61 4.08 0 2.41 1.5 4.08 3.67 4.08zm1.92-4.9h-4.23c.24-1.34 1.1-2.1 2.24-2.1 1.36 0 1.96.99 1.99 2.1zm6.13 4.9c1.09 0 1.96-.52 2.43-1.3V159h1.35v-10.77h-1.35v4.07a2.77 2.77 0 0 0-2.43-1.3c-2.18 0-3.42 1.85-3.42 4.08 0 2.22 1.24 4.08 3.42 4.08zm.24-1.18c-1.47 0-2.3-1.21-2.3-2.9s.83-2.89 2.3-2.89c1.1 0 2.22.8 2.22 2.62v.56c0 1.8-1.11 2.61-2.22 2.61zm11.89 1.19c1.1 0 1.87-.59 2.32-1.25V159h1.35v-7.84h-1.35v4.72c0 1.3-.99 2.04-1.96 2.04-1.16 0-1.64-.75-1.64-1.86v-4.9h-1.35v5.19c0 1.66.95 2.82 2.63 2.82zm8.69 0c1.68 0 3.04-1 3.04-2.5 0-1.7-1.54-1.98-2.9-2.29-1.09-.24-1.78-.38-1.78-1.11 0-.7.6-1.16 1.5-1.16.99 0 1.73.5 2.13 1.28l.96-.77c-.46-.93-1.62-1.62-3.03-1.62-1.66 0-2.88.98-2.88 2.37 0 1.61 1.35 1.9 2.64 2.18 1.29.27 2.04.39 2.04 1.25 0 .85-.81 1.24-1.72 1.24a2.62 2.62 0 0 1-2.4-1.47l-1.05.77c.6 1.21 2.02 1.83 3.45 1.83zm6.87-.03c1.07 0 1.94-.41 2.42-1.02.16.75.85 1.03 2.05.88v-1.08c-.52.12-.84-.04-.84-.55v-3.83c0-1.68-1.08-2.53-2.83-2.53-1.61 0-2.76.91-3.14 2.19l1.28.33c.24-.87.82-1.34 1.81-1.34 1.05 0 1.55.51 1.55 1.41v.33l-1.91.39c-1.75.36-2.97 1-2.97 2.56 0 1.41 1.16 2.25 2.58 2.25zm.17-1.1c-.86 0-1.41-.45-1.41-1.21 0-.95.8-1.28 2-1.52l1.54-.33v1.35c0 1-.98 1.71-2.13 1.71zm8.96 3.83c2.13 0 3.64-1.28 3.64-3.57v-7.14h-1.35v1.15a2.7 2.7 0 0 0-2.4-1.3c-2.14 0-3.4 1.77-3.4 3.9 0 2.14 1.26 3.91 3.4 3.91 1.1 0 1.98-.54 2.4-1.3v.88c0 1.63-.91 2.34-2.3 2.34-1.09 0-1.9-.59-2.16-1.59l-1.26.48c.44 1.44 1.7 2.23 3.42 2.23zm.13-4.23c-1.42 0-2.3-1.08-2.3-2.73s.88-2.72 2.3-2.72c1.13 0 2.18.84 2.18 2.6v.28c0 1.73-1.05 2.56-2.18 2.56zm9.1 1.53c1.56 0 2.74-.86 3.22-2.25l-1.18-.42c-.24.93-1 1.5-2.04 1.5-1.37 0-2.31-1.05-2.39-2.7h5.67v-.45c0-2.18-1.15-3.84-3.34-3.84-2.13 0-3.62 1.74-3.62 4.08 0 2.41 1.5 4.08 3.67 4.08zm1.92-4.91h-4.23c.24-1.34 1.09-2.1 2.23-2.1 1.37 0 1.97.99 2 2.1z"/><path fill="#0A2540" fill-rule="nonzero" d="M288.26 136.59v-1.47c1.91-.26 3.38-1.47 3.38-3.33 0-2.22-1.73-2.71-3.38-3.03v-3.06c.87.2 1.56.75 2.04 1.57l1.31-1.23c-.59-1.02-1.83-1.74-3.34-1.93v-1.44h-1.43v1.44c-1.89.21-3.3 1.4-3.3 3.18 0 2.11 1.66 2.61 3.3 2.92v3.3a3.34 3.34 0 0 1-2.43-1.77l-1.41 1.2a4.98 4.98 0 0 0 3.84 2.2v1.45h1.43zm-1.42-8.1c-.9-.22-1.56-.54-1.56-1.34 0-.82.63-1.33 1.56-1.5v2.84zm1.42 5.01v-3c.93.22 1.62.57 1.62 1.43 0 .94-.69 1.42-1.62 1.57zm8.18 1.66c2.36 0 3.81-1.48 3.81-3.2 0-1.42-.82-2.23-1.86-2.56a2.43 2.43 0 0 0 1.53-2.32c0-1.76-1.27-3.02-3.43-3.02a3.77 3.77 0 0 0-3.87 3.26l1.72.31c.21-1.17.96-1.98 2.09-1.98 1.06 0 1.7.59 1.7 1.53 0 .96-.71 1.46-1.85 1.46h-1.05v1.62h1.06c1.25 0 2.12.48 2.12 1.57 0 1.11-.83 1.74-2 1.74-1.14 0-2.05-.75-2.23-2.05l-1.85.34c.32 2.16 2 3.3 4.11 3.3zm6.85-.16v-2.18h-2.18V135h2.18zm4.86.16c2.67 0 4.23-2.26 4.23-5.55 0-3.28-1.55-5.55-4.23-5.55-2.67 0-4.23 2.27-4.23 5.55 0 3.29 1.56 5.55 4.23 5.55zm0-1.66c-1.59 0-2.3-1.62-2.3-3.88 0-2.27.71-3.89 2.3-3.89 1.6 0 2.31 1.62 2.31 3.88 0 2.27-.72 3.89-2.3 3.89zm9.68 1.66c2.67 0 4.23-2.26 4.23-5.55 0-3.28-1.56-5.55-4.23-5.55-2.66 0-4.23 2.27-4.23 5.55 0 3.29 1.56 5.55 4.23 5.55zm0-1.66c-1.58 0-2.3-1.62-2.3-3.88 0-2.27.72-3.89 2.3-3.89 1.6 0 2.31 1.62 2.31 3.88 0 2.27-.72 3.89-2.3 3.89zm5.95 2.97l4.35-12.54h-1.83l-4.35 12.54h1.83zm7.5-1.3c1.03 0 1.7-.48 2.15-1.01v.84h1.8v-7.88h-1.8v4.68c0 1.13-.81 1.73-1.62 1.73-.98 0-1.4-.62-1.4-1.58v-4.82h-1.8v5.22c0 1.69 1.02 2.82 2.67 2.82zm7.84-.17v-4.62c0-1.13.82-1.73 1.63-1.73 1 0 1.39.71 1.39 1.68V135h1.8v-5.19c0-1.7-1-2.84-2.64-2.84-1.02 0-1.73.47-2.18 1v-.85h-1.8V135h1.8zm8.67-8.93v-1.84h-1.86v1.84h1.86zm-.03 8.93v-7.88h-1.8V135h1.8zm4.57.09c.47 0 .92-.04 1.25-.1v-1.52c-.27.03-.44.05-.74.05-.65 0-1.05-.08-1.05-.78v-4.08h1.65v-1.53h-1.65v-2.31h-1.77v2.3h-1.1v1.54h1.1v4.36c0 1.6.81 2.07 2.31 2.07zm3.83 1.38l4.35-12.54h-1.83l-4.35 12.54h1.83zm6.7-1.47v-4.62c0-1.13.79-1.73 1.55-1.73.96 0 1.32.71 1.32 1.68V135h1.8v-4.62c0-1.13.8-1.73 1.56-1.73.97 0 1.33.71 1.33 1.68V135h1.8v-5.19c0-1.7-1.06-2.84-2.68-2.84-1.21 0-1.96.59-2.44 1.1a2.37 2.37 0 0 0-2.09-1.1c-1.05 0-1.72.47-2.16 1v-.85h-1.8V135h1.8zm14.68.16c2.22 0 3.8-1.65 3.8-4.09 0-2.45-1.58-4.1-3.8-4.1-2.22 0-3.79 1.65-3.79 4.1 0 2.45 1.57 4.1 3.8 4.1zm0-1.51c-1.21 0-1.98-.98-1.98-2.58s.77-2.58 1.98-2.58c1.22 0 1.98.97 1.98 2.58 0 1.6-.76 2.58-1.98 2.58zm7.2 1.35v-4.62c0-1.13.82-1.73 1.63-1.73.99 0 1.38.71 1.38 1.68V135h1.8v-5.19c0-1.7-.99-2.84-2.64-2.84-1.02 0-1.73.47-2.18 1v-.85h-1.8V135h1.8zm9.31.09c.47 0 .92-.05 1.25-.1v-1.52c-.27.03-.44.04-.74.04-.64 0-1.05-.07-1.05-.78v-4.08h1.65v-1.53h-1.65v-2.3h-1.76v2.3h-1.1v1.53h1.1v4.37c0 1.6.8 2.07 2.3 2.07zm4.6-.09v-4.62c0-1.13.82-1.73 1.63-1.73 1 0 1.38.71 1.38 1.68V135h1.8v-5.19c0-1.7-.99-2.84-2.64-2.84-1.02 0-1.72.47-2.17 1v-3.74h-1.8V135h1.8z"/><path fill="#15BE53" d="M256 121v2a1 1 0 0 0 1 1h8a1 1 0 0 0 1-1v-2h1a2 2 0 0 1 2 2v14a2 2 0 0 1-2 2h-12a2 2 0 0 1-2-2v-14c0-1.1.9-2 2-2h1zm8.14 7.74a.25.25 0 0 0-.35.07l-1.53 2.3a.25.25 0 0 0 .2.39h1.04a2.5 2.5 0 0 1-2.5 2.5.5.5 0 1 0 0 1 3.5 3.5 0 0 0 3.5-3.5h1.03a.25.25 0 0 0 .21-.39l-1.53-2.3a.25.25 0 0 0-.07-.07zM261 128a3.5 3.5 0 0 0-3.5 3.5h-1.03a.25.25 0 0 0-.21.39l1.53 2.3a.25.25 0 0 0 .42 0l1.53-2.3a.25.25 0 0 0-.2-.39h-1.04a2.5 2.5 0 0 1 2.5-2.5.5.5 0 1 0 0-1zm3.5-7c.28 0 .5.22.5.5v1a.5.5 0 0 1-.5.5h-7a.5.5 0 0 1-.5-.5v-1c0-.28.22-.5.5-.5h7z"/><path fill="#364657" fill-rule="nonzero" d="M60.38 159v-10.83H59.3c-.1 1.25-.52 1.68-1.8 1.77l-1.16.08v1.06h2.6V159h1.44zm5.64.16a3.65 3.65 0 0 0 3.77-3.66c0-2.04-1.38-3.6-3.48-3.6a3 3 0 0 0-2.15.84l.29-3.25h4.75v-1.26h-5.86l-.47 5.54 1.32.22a2.35 2.35 0 0 1 1.95-.91c1.37 0 2.3 1.09 2.3 2.45a2.38 2.38 0 0 1-2.41 2.44c-1.34 0-2.27-.89-2.5-2.27l-1.37.29c.37 2.04 1.84 3.18 3.87 3.18zm9.12 0c2.55 0 4.09-2.26 4.09-5.55 0-3.28-1.54-5.55-4.1-5.55-2.56 0-4.1 2.27-4.1 5.55 0 3.29 1.54 5.55 4.1 5.55zm0-1.26c-1.76 0-2.67-1.77-2.67-4.29s.91-4.29 2.66-4.29c1.74 0 2.67 1.78 2.67 4.3 0 2.52-.93 4.29-2.67 4.29zm12.67 1.26c2.13 0 3.91-1.27 3.91-3.28 0-2.28-1.97-2.66-3.75-3.08-1.52-.36-2.52-.6-2.52-1.74 0-1.03.95-1.75 2.25-1.75a3 3 0 0 1 2.8 1.74l1.1-.87c-.64-1.21-2-2.11-3.87-2.11-2.04 0-3.68 1.23-3.68 3.12 0 2.02 1.68 2.48 3.38 2.89 1.63.39 2.88.61 2.88 1.92 0 1.23-1.08 1.92-2.48 1.92-1.39 0-2.6-.75-3.28-2.04l-1.12.9c.73 1.46 2.52 2.39 4.38 2.39zm8.24 0c1.1 0 1.87-.58 2.32-1.24V159h1.35v-7.84h-1.35v4.72c0 1.3-.99 2.04-1.96 2.04-1.16 0-1.64-.75-1.64-1.86v-4.9h-1.35v5.19c0 1.66.95 2.82 2.63 2.82zm9.89 0c2.17 0 3.42-1.86 3.42-4.08 0-2.23-1.25-4.08-3.42-4.08-1.1 0-1.97.53-2.43 1.3v-4.07h-1.35V159h1.35v-1.14c.46.78 1.33 1.3 2.43 1.3zm-.24-1.18c-1.11 0-2.22-.81-2.22-2.61v-.55c0-1.83 1.1-2.63 2.22-2.63 1.47 0 2.29 1.2 2.29 2.9 0 1.68-.82 2.89-2.3 2.89zm8.15 1.19c1.68 0 3.04-1 3.04-2.5 0-1.7-1.54-1.98-2.9-2.29-1.09-.24-1.78-.38-1.78-1.11 0-.7.6-1.16 1.5-1.16.99 0 1.73.5 2.13 1.28l.96-.77c-.46-.93-1.62-1.62-3.03-1.62-1.66 0-2.88.98-2.88 2.37 0 1.61 1.35 1.9 2.64 2.18 1.29.27 2.04.39 2.04 1.25 0 .85-.81 1.24-1.72 1.24a2.62 2.62 0 0 1-2.4-1.47l-1.05.77c.6 1.21 2.02 1.83 3.45 1.83zm8.07 0c1.64 0 2.78-1 3.15-2.3l-1.2-.55c-.22.97-.87 1.66-1.95 1.66-1.4 0-2.35-1.11-2.35-2.9 0-1.8.96-2.9 2.35-2.9 1.08 0 1.73.7 1.95 1.66l1.17-.59a3.08 3.08 0 0 0-3.12-2.25c-2.19 0-3.7 1.65-3.7 4.08 0 2.42 1.51 4.08 3.7 4.08zm6.19-.17v-4.29c0-1.38.91-2.28 2.05-2.28.26 0 .44.02.66.06v-1.37a5.04 5.04 0 0 0-.54-.03 2.3 2.3 0 0 0-2.17 1.4v-1.34h-1.36V159h1.36zm5.8-9.21v-1.56h-1.46v1.56h1.47zm-.05 9.21v-7.84h-1.36V159h1.36zm3.8 2.7v-3.84c.46.78 1.33 1.3 2.43 1.3 2.17 0 3.42-1.86 3.42-4.08 0-2.23-1.25-4.08-3.42-4.08-1.1 0-1.97.53-2.43 1.3v-1.15h-1.35v10.55h1.35zm2.19-3.72c-1.11 0-2.22-.81-2.22-2.61v-.55c0-1.83 1.1-2.63 2.22-2.63 1.47 0 2.29 1.2 2.29 2.9 0 1.68-.82 2.89-2.3 2.89zm7.88 1.1c.45 0 .84-.05 1.18-.13v-1.15c-.31.07-.54.09-.85.09-.7 0-1.1-.15-1.1-.98v-4.6h1.79v-1.16h-1.79v-2.29h-1.33v2.3h-1.22v1.15h1.22v4.82c0 1.5.76 1.95 2.1 1.95zm4.4-9.29v-1.56h-1.47v1.56h1.47zm-.06 9.21v-7.84h-1.35V159h1.35zm5.55.16c2.15 0 3.65-1.65 3.65-4.08s-1.5-4.08-3.65-4.08c-2.14 0-3.64 1.65-3.64 4.08s1.5 4.08 3.64 4.08zm0-1.15c-1.38 0-2.28-1.14-2.28-2.92 0-1.8.9-2.95 2.28-2.95s2.28 1.14 2.28 2.94c0 1.79-.9 2.93-2.28 2.93zm6.9.99v-4.68c0-1.3 1-2.05 1.97-2.05 1.17 0 1.64.82 1.64 1.91V159h1.35v-5.17c0-1.67-.95-2.83-2.61-2.83a2.8 2.8 0 0 0-2.34 1.22v-1.06h-1.35V159h1.35zm9.9.16c1.68 0 3.04-.99 3.04-2.49 0-1.7-1.54-1.98-2.9-2.29-1.09-.24-1.78-.38-1.78-1.11 0-.7.6-1.16 1.5-1.16.99 0 1.73.5 2.13 1.28l.96-.77c-.46-.93-1.62-1.62-3.03-1.62-1.66 0-2.88.98-2.88 2.37 0 1.61 1.35 1.9 2.64 2.18 1.29.27 2.04.39 2.04 1.25 0 .85-.81 1.24-1.72 1.24a2.62 2.62 0 0 1-2.4-1.47l-1.05.77c.6 1.21 2.02 1.83 3.45 1.83z"/><path fill="#0A2540" fill-rule="nonzero" d="M58.94 135v-4.17h2.39c2.4 0 3.9-1.15 3.9-3.3 0-2.17-1.5-3.3-3.9-3.3h-4.31V135h1.92zm2.28-5.82h-2.28v-3.3h2.28c1.38 0 2.12.59 2.12 1.65 0 1.05-.74 1.65-2.12 1.65zm7.05 5.82v-4.14c0-1.26.88-2 2.02-2 .25 0 .43.02.65.05v-1.8c-.13-.01-.3-.03-.5-.03-1.01 0-1.82.48-2.16 1.21v-1.17h-1.8V135h1.8zm7.05.16c2.22 0 3.79-1.65 3.79-4.09 0-2.45-1.58-4.1-3.8-4.1-2.22 0-3.79 1.65-3.79 4.1 0 2.45 1.58 4.1 3.8 4.1zm0-1.51c-1.22 0-1.98-.98-1.98-2.58s.76-2.58 1.98-2.58c1.21 0 1.98.97 1.98 2.58 0 1.6-.77 2.58-1.98 2.58zm8.55 4.21c2.25 0 3.84-1.33 3.84-3.66v-7.08h-1.8v.84a2.78 2.78 0 0 0-2.22-.99c-2.16 0-3.45 1.76-3.45 3.92s1.29 3.91 3.45 3.91c1 0 1.8-.43 2.22-.99v.56c0 1.44-.82 2.04-2.04 2.04-.99 0-1.66-.56-1.9-1.44l-1.69.6c.5 1.53 1.77 2.3 3.59 2.3zm.16-4.63c-1.24 0-1.98-.88-1.98-2.34 0-1.47.74-2.34 1.99-2.34 1.12 0 1.9.82 1.9 2.26v.18c0 1.41-.78 2.24-1.9 2.24zm7.58 1.77v-4.14c0-1.26.88-2 2.02-2 .25 0 .43.02.66.05v-1.8c-.14-.01-.3-.03-.52-.03-1 0-1.81.48-2.16 1.21v-1.17h-1.8V135h1.8zm7.08.16c1.57 0 2.81-.82 3.37-2.2l-1.55-.59c-.23.81-.94 1.26-1.83 1.26-1.15 0-1.96-.82-2.1-2.17h5.53v-.6c0-2.16-1.22-3.89-3.5-3.89-2.19 0-3.75 1.79-3.75 4.1 0 2.43 1.58 4.1 3.83 4.1zm1.6-5.05h-3.62c.27-1.07 1-1.62 1.92-1.62 1.14 0 1.69.75 1.7 1.62zm6.15 5.05c1.79 0 3.25-1.02 3.25-2.6 0-1.8-1.69-2.09-3.02-2.37-.99-.21-1.56-.32-1.56-.89 0-.53.48-.86 1.22-.86.86 0 1.61.41 2.06 1.12l1.22-1.1c-.57-.87-1.8-1.49-3.18-1.49-1.82 0-3.08 1.06-3.08 2.5 0 1.68 1.43 1.99 2.68 2.25 1.24.25 1.9.33 1.9 1 0 .7-.7.97-1.47.97-.91 0-1.81-.5-2.28-1.27l-1.35 1.08c.7 1.08 2.16 1.66 3.61 1.66zm7.62 0c1.78 0 3.23-1.02 3.23-2.6 0-1.8-1.68-2.09-3.01-2.37-.99-.21-1.56-.32-1.56-.89 0-.53.48-.86 1.22-.86.87 0 1.62.41 2.06 1.12l1.22-1.1c-.57-.87-1.8-1.49-3.18-1.49-1.82 0-3.08 1.06-3.08 2.5 0 1.68 1.43 1.99 2.68 2.25 1.24.25 1.9.33 1.9 1 0 .7-.7.97-1.47.97-.91 0-1.81-.5-2.28-1.27l-1.35 1.08c.7 1.08 2.16 1.66 3.62 1.66zm6.64-9.09v-1.84h-1.86v1.84h1.86zm-.03 8.93v-7.88h-1.8V135h1.8zm5.88 0l2.88-7.88h-1.86l-1.91 5.72-1.92-5.71h-1.89l2.88 7.87h1.82zm7.19.16c1.57 0 2.82-.82 3.37-2.2l-1.55-.59c-.23.81-.94 1.26-1.83 1.26-1.15 0-1.96-.82-2.1-2.17h5.53v-.6c0-2.16-1.22-3.89-3.5-3.89-2.19 0-3.75 1.79-3.75 4.1 0 2.43 1.58 4.1 3.83 4.1zm1.6-5.05h-3.61c.27-1.07.99-1.62 1.92-1.62 1.14 0 1.68.75 1.69 1.62z"/><path fill="#15BE53" d="M37 125a2 2 0 0 1 2 2v10a2 2 0 0 1-2 2H27a2 2 0 0 1-2-2v-10c0-1.1.9-2 2-2h10zm-1.86 4.24a.25.25 0 0 0-.35.07l-1.53 2.3a.25.25 0 0 0 .2.39h1.04a2.5 2.5 0 0 1-2.5 2.5.5.5 0 1 0 0 1 3.5 3.5 0 0 0 3.5-3.5h1.03a.25.25 0 0 0 .21-.39l-1.53-2.3a.25.25 0 0 0-.07-.07zM41 121a2 2 0 0 1 2 2v10a2 2 0 0 1-2 2v-9a3 3 0 0 0-3-3h-9c0-1.1.9-2 2-2h10zm-9 7.5a3.5 3.5 0 0 0-3.5 3.5h-1.03a.25.25 0 0 0-.21.39l1.53 2.3a.25.25 0 0 0 .42 0l1.53-2.3a.25.25 0 0 0-.2-.39H29.5a2.5 2.5 0 0 1 2.5-2.5.5.5 0 0 0 0-1z"/><g><path fill="#0A2540" fill-rule="nonzero" d="M285.77 86.08v-1.85h-1.86v1.84h1.86zm-2.46 11.67c1.4 0 2.43-.68 2.43-2.13v-8.5h-1.8v8.15c0 .69-.3.93-.97.93-.24 0-.38-.01-.53-.03v1.53c.26.03.48.05.87.05zm6.61-2.61c1.02 0 1.84-.33 2.34-.89.27.64.96.9 2.27.75v-1.4c-.5.07-.7-.07-.7-.52v-3.39c0-1.81-1.14-2.71-3.03-2.71a3.26 3.26 0 0 0-3.28 2.32l1.7.39c.2-.76.65-1.15 1.51-1.15.96 0 1.35.46 1.35 1.21v.13l-2.17.46c-1.52.31-2.65.97-2.65 2.47 0 1.41 1.16 2.33 2.66 2.33zm.27-1.44c-.69 0-1.14-.35-1.14-.96 0-.71.57-.95 1.34-1.11l1.69-.36v.96c0 .96-.93 1.47-1.89 1.47zm7.61 1.3v-4.62c0-1.13.83-1.73 1.64-1.73.98 0 1.38.71 1.38 1.68V95h1.8v-5.19c0-1.7-1-2.84-2.64-2.84-1.02 0-1.73.47-2.18 1v-.85H296V95h1.8zm10.18.16c1.57 0 2.82-.82 3.37-2.2l-1.55-.59c-.24.81-.94 1.26-1.83 1.26-1.15 0-1.96-.82-2.1-2.17h5.52v-.6c0-2.16-1.21-3.88-3.49-3.88-2.19 0-3.75 1.78-3.75 4.09 0 2.43 1.58 4.1 3.83 4.1zm1.6-5.05h-3.61c.27-1.07.98-1.62 1.91-1.62 1.15 0 1.69.75 1.7 1.62zm5.2 4.89v-2.18h-2.18V95h2.17zm4.34.16c1.02 0 1.77-.4 2.26-.99V95h1.8V84.23h-1.8v3.73a2.86 2.86 0 0 0-2.27-.98c-2.2 0-3.46 1.86-3.46 4.09 0 2.24 1.26 4.1 3.47 4.1zm.36-1.57c-1.31 0-2.01-1.02-2.01-2.52s.7-2.52 2-2.52c1.11 0 1.95.81 1.95 2.3v.46c0 1.46-.84 2.28-1.95 2.28zm7.62-7.52v-1.84h-1.86v1.84h1.86zm-.03 8.93v-7.88h-1.8V95h1.8zm4.18.13c1.02 0 1.84-.33 2.34-.88.27.64.96.9 2.26.75v-1.4c-.5.06-.69-.07-.69-.52v-3.39c0-1.82-1.14-2.72-3.03-2.72a3.26 3.26 0 0 0-3.28 2.33l1.69.39c.21-.77.66-1.16 1.52-1.16.95 0 1.34.47 1.34 1.22v.13l-2.17.45c-1.52.32-2.64.98-2.64 2.48 0 1.41 1.16 2.32 2.66 2.32zm.27-1.44c-.7 0-1.14-.34-1.14-.96 0-.7.57-.94 1.33-1.1l1.7-.37v.96c0 .96-.94 1.47-1.9 1.47zm11.8 1.31v-1.53h-4.15l4.11-4.98v-1.37h-6.31v1.53h4.17l-4.23 5V95h6.42zm7.33 2.45c1.56 0 3.06-.37 4.28-1.28l-.74-1.17a6.02 6.02 0 0 1-3.57 1.03c-2.79 0-4.77-1.57-4.77-4.39 0-2.93 2.2-5.15 5.06-5.15 2.58 0 4.31 1.44 4.31 3.92 0 1.65-.72 2.6-1.53 2.6-.43 0-.67-.25-.55-.89l.7-3.9h-1.63l-.15.72c-.24-.43-.8-.85-1.66-.85-1.68 0-3 1.73-3 3.65 0 1.64.99 2.6 2.35 2.6.72 0 1.47-.29 1.88-.87.31.52.9.87 1.89.87 1.65 0 3.2-1.4 3.2-4.02 0-3.13-2.53-5.2-5.74-5.2a6.54 6.54 0 0 0-6.69 6.52c0 3.68 2.77 5.8 6.36 5.8zm-.48-4.54c-.64 0-.98-.46-.98-1.21 0-1.19.59-2.19 1.53-2.19.59 0 .9.46.9.96v.08c0 .15-.03.35-.15.92-.19.86-.64 1.44-1.3 1.44zm10.94 2.25c1.78 0 3.24-1.02 3.24-2.6 0-1.8-1.68-2.09-3.02-2.38-.98-.2-1.55-.31-1.55-.88 0-.53.48-.86 1.21-.86.87 0 1.62.41 2.07 1.11l1.22-1.09c-.58-.87-1.8-1.49-3.19-1.49-1.81 0-3.07 1.05-3.07 2.5 0 1.67 1.42 1.99 2.67 2.24 1.25.26 1.9.33 1.9 1.01 0 .7-.7.97-1.46.97-.92 0-1.82-.5-2.28-1.27l-1.35 1.08c.7 1.08 2.16 1.66 3.61 1.66zm7.3-.07c.46 0 .91-.05 1.24-.1v-1.52c-.27.03-.43.04-.73.04-.65 0-1.06-.07-1.06-.78v-4.08h1.66v-1.53h-1.66v-2.3h-1.77v2.3H365v1.53h1.1v4.37c0 1.6.8 2.07 2.3 2.07zM373 95v-4.14c0-1.26.87-2 2.01-2 .25 0 .43.02.66.05v-1.8c-.14-.02-.3-.03-.51-.03-1 0-1.82.48-2.16 1.21v-1.17h-1.8V95h1.8zm5.94-8.93v-1.84h-1.86v1.84h1.86zm-.02 8.93v-7.88h-1.8V95h1.8zm3.89 2.7v-3.53c.49.59 1.24 1 2.26 1 2.2 0 3.47-1.87 3.47-4.1 0-2.24-1.27-4.1-3.47-4.1-1.02 0-1.77.41-2.27 1v-.85H381V97.7h1.8zm1.9-4.11c-1.11 0-1.95-.83-1.95-2.28v-.47c0-1.48.84-2.29 1.95-2.29 1.3 0 2.01 1.02 2.01 2.52s-.7 2.52-2.01 2.52zm8.75 1.57c1.58 0 2.82-.82 3.38-2.2l-1.55-.59c-.24.81-.94 1.26-1.83 1.26-1.15 0-1.96-.82-2.1-2.17h5.52v-.6c0-2.16-1.22-3.88-3.5-3.88-2.19 0-3.75 1.78-3.75 4.09 0 2.43 1.58 4.1 3.83 4.1zm1.6-5.05h-3.61c.27-1.07.99-1.62 1.92-1.62 1.14 0 1.68.75 1.7 1.62zm5.2 4.89v-2.18h-2.17V95h2.17zm4.75.16c1.7 0 2.9-1 3.31-2.28l-1.54-.78c-.23.87-.81 1.5-1.77 1.5-1.23 0-2.07-.93-2.07-2.53 0-1.6.84-2.55 2.07-2.55.96 0 1.54.64 1.77 1.5l1.51-.82c-.42-1.27-1.59-2.23-3.28-2.23-2.25 0-3.87 1.67-3.87 4.1 0 2.43 1.62 4.1 3.87 4.1zm7.9 0c2.23 0 3.8-1.65 3.8-4.09 0-2.45-1.57-4.1-3.8-4.1-2.21 0-3.79 1.65-3.79 4.1 0 2.45 1.58 4.1 3.8 4.1zm0-1.51c-1.21 0-1.97-.98-1.97-2.58s.76-2.58 1.98-2.58c1.21 0 1.98.97 1.98 2.58 0 1.6-.77 2.58-1.98 2.58zm7.2 1.35v-4.62c0-1.13.79-1.73 1.56-1.73.96 0 1.32.71 1.32 1.68V95h1.8v-4.62c0-1.13.79-1.73 1.56-1.73.96 0 1.32.71 1.32 1.68V95h1.8v-5.19c0-1.7-1.05-2.84-2.67-2.84-1.22 0-1.97.59-2.45 1.1a2.37 2.37 0 0 0-2.08-1.1c-1.05 0-1.73.47-2.16 1v-.85h-1.8V95h1.8z"/><path fill="#15BE53" d="M268 83a3 3 0 0 1 3 3v8a3 3 0 0 1-3 3h-14a3 3 0 0 1-3-3v-8a3 3 0 0 1 3-3h14zm.45 1.5h-14.9a.75.75 0 0 0-.48 1.32l6.64 5.6a2 2 0 0 0 2.58 0l6.64-5.6a.75.75 0 0 0-.48-1.32z"/></g><path fill="#0A2540" fill-rule="nonzero" d="M57.76 95.1c2.19 0 3.43-1.01 3.43-3.16v-7.71h-1.92v7.56c0 1.2-.59 1.6-1.74 1.6a5.7 5.7 0 0 1-1.2-.11v1.7c.51.1.9.13 1.43.13zm7.52.04c1.02 0 1.84-.33 2.34-.89.27.64.96.9 2.26.75v-1.4c-.5.07-.69-.07-.69-.52v-3.39c0-1.81-1.14-2.71-3.03-2.71a3.26 3.26 0 0 0-3.28 2.32l1.69.39c.21-.76.66-1.15 1.52-1.15.95 0 1.34.46 1.34 1.21v.13l-2.17.46c-1.52.31-2.64.97-2.64 2.47 0 1.41 1.15 2.33 2.65 2.33zm.27-1.44c-.7 0-1.14-.35-1.14-.96 0-.71.57-.95 1.33-1.11l1.7-.36v.96c0 .96-.93 1.47-1.9 1.47zm7.6 1.3v-4.62c0-1.13.83-1.73 1.64-1.73.99 0 1.38.71 1.38 1.68V95h1.8v-5.19c0-1.7-.99-2.84-2.64-2.84-1.02 0-1.72.47-2.17 1v-.85h-1.8V95h1.8zm10.18.16c1.58 0 2.82-.82 3.38-2.2l-1.55-.59c-.24.81-.94 1.26-1.83 1.26-1.15 0-1.96-.82-2.1-2.17h5.52v-.6c0-2.16-1.21-3.88-3.5-3.88-2.18 0-3.74 1.78-3.74 4.09 0 2.43 1.57 4.1 3.82 4.1zm1.6-5.05h-3.61c.27-1.07.99-1.62 1.92-1.62 1.14 0 1.68.75 1.7 1.62zM95.28 95c3.34 0 5.41-2.1 5.41-5.39 0-3.28-2.07-5.38-5.41-5.38h-3.6V95h3.6zm0-1.65h-1.73v-7.47h1.71c2.24 0 3.54 1.46 3.54 3.73s-1.3 3.74-3.52 3.74zm8.87-7.28v-1.84h-1.86v1.84h1.86zM104.1 95v-7.88h-1.8V95h1.8zm4.17.13c1.02 0 1.85-.33 2.34-.88.27.64.96.9 2.27.75v-1.4c-.5.06-.7-.07-.7-.52v-3.39c0-1.82-1.13-2.72-3.02-2.72a3.26 3.26 0 0 0-3.29 2.33l1.7.39c.2-.77.66-1.16 1.51-1.16.96 0 1.35.47 1.35 1.22v.13l-2.17.45c-1.52.32-2.64.98-2.64 2.48 0 1.41 1.15 2.32 2.65 2.32zm.27-1.44c-.69 0-1.14-.34-1.14-.96 0-.7.57-.94 1.34-1.1l1.69-.37v.96c0 .96-.93 1.47-1.89 1.47zM120.36 95v-1.53h-4.15l4.1-4.98v-1.37H114v1.53h4.17l-4.23 5V95h6.42z"/><path fill="#15BE53" d="M34 80a10 10 0 1 1 0 20 10 10 0 0 1 0-20zm0 13a7 7 0 0 0-6.12 3.6 8.97 8.97 0 0 0 12.24 0A7 7 0 0 0 34 93zm0-9a3.5 3.5 0 1 0 0 7 3.5 3.5 0 0 0 0-7z"/><path fill="#ECF2F8" d="M24 60h493v1H24z"/><path fill="#0A2540" fill-rule="nonzero" d="M30.52 37.2a5.24 5.24 0 0 0 5.27-3.82l-2.48-.83c-.36 1.44-1.39 2.33-2.8 2.33-1.97 0-3.36-1.71-3.36-4.34s1.39-4.34 3.37-4.34c1.4 0 2.43.88 2.79 2.32l2.48-.83a5.24 5.24 0 0 0-5.27-3.81c-3.5 0-6.03 2.75-6.03 6.66 0 3.9 2.53 6.66 6.03 6.66zm9.32-.2v-4.8c0-1.46 1.01-2.27 2.32-2.27.31 0 .53.01.81.05v-2.47c-.18-.01-.36-.03-.6-.03-1.18 0-2.11.56-2.53 1.38v-1.33h-2.52V37h2.52zm8.46.2a4.3 4.3 0 0 0 4.18-2.7l-2.12-.76c-.3.92-1.07 1.39-2.04 1.39-1.24 0-2.12-.87-2.3-2.3h6.51v-.74c0-2.65-1.5-4.74-4.32-4.74-2.68 0-4.6 2.13-4.6 4.92 0 2.93 1.9 4.93 4.7 4.93zm1.73-6.09h-3.92c.3-1.15 1.08-1.74 2.09-1.74 1.22 0 1.81.8 1.83 1.74zm6.92 6.05c1.24 0 2.2-.38 2.8-1.04.42.79 1.39 1.11 3 .88v-1.89c-.57.07-.78-.09-.78-.6v-3.86c0-2.2-1.44-3.3-3.84-3.3-2.25 0-3.69 1.3-4.12 2.9l2.4.45c.21-.85.7-1.26 1.63-1.26 1.05 0 1.46.5 1.46 1.31v.15l-2.36.45c-1.9.34-3.42 1.13-3.42 3.02 0 1.68 1.37 2.8 3.23 2.8zm.5-1.9c-.76 0-1.24-.38-1.24-1.03 0-.76.61-1.03 1.44-1.19l1.85-.38v.97c0 1.07-.99 1.62-2.05 1.62zM67.5 37.1c.63 0 1.17-.06 1.62-.15v-2.08c-.33.03-.5.05-.87.05-.74 0-1.19-.1-1.19-.92v-4.37H69v-2.1h-1.93v-2.7h-2.48v2.7h-1.26v2.1h1.26v4.9c0 1.94 1 2.57 2.92 2.57zm7.4.09a4.3 4.3 0 0 0 4.17-2.7l-2.12-.76c-.29.92-1.06 1.39-2.04 1.39-1.24 0-2.12-.87-2.3-2.3h6.52v-.74c0-2.65-1.52-4.74-4.32-4.74-2.69 0-4.61 2.13-4.61 4.92 0 2.93 1.9 4.93 4.7 4.93zm1.72-6.09H72.7c.3-1.15 1.08-1.74 2.09-1.74 1.22 0 1.82.8 1.83 1.74zm12.32 6.09c2.75 0 5.06-1.57 5.06-4.18 0-2.82-2.52-3.35-4.57-3.8-1.7-.37-2.63-.57-2.63-1.58 0-.94.86-1.55 2.12-1.55 1.44 0 2.45.72 3.2 1.78l1.75-1.7a5.85 5.85 0 0 0-4.88-2.3c-2.68 0-4.8 1.56-4.8 4.02 0 2.56 2.09 3.17 4.01 3.62 1.95.43 3.17.6 3.17 1.78 0 1.1-.99 1.7-2.34 1.7-1.42 0-2.8-.76-3.76-2.11l-1.82 1.76c1.04 1.57 3.31 2.56 5.49 2.56zm9.8 0c1.2 0 2.03-.56 2.55-1.17V37h2.52v-9.47h-2.52v5.56c0 1.23-.86 1.88-1.75 1.88-1.04 0-1.5-.69-1.5-1.73v-5.7H95.5v6.26c0 2.05 1.26 3.4 3.22 3.4zm12.52 0c2.61 0 4.13-2.23 4.13-4.93 0-2.69-1.52-4.92-4.13-4.92a3.3 3.3 0 0 0-2.64 1.15v-4.42h-2.52V37h2.52v-.97c.56.7 1.46 1.17 2.64 1.17zm-.59-2.16c-1.2 0-2.1-.9-2.1-2.5V32c0-1.62.9-2.5 2.1-2.5 1.42 0 2.18 1.14 2.18 2.76 0 1.63-.76 2.77-2.18 2.77zm9.87 2.16c2.26 0 4.1-1.23 4.1-3.2 0-2.15-1.96-2.53-3.62-2.87-1.17-.23-1.8-.34-1.8-.95 0-.52.52-.87 1.32-.87.99 0 1.9.45 2.53 1.26l1.44-1.58c-.73-.95-2.23-1.64-3.9-1.64-2.27 0-3.87 1.26-3.87 3.08 0 2.03 1.69 2.43 3.22 2.74 1.51.28 2.21.37 2.21 1.1 0 .68-.73.97-1.58.97a3.7 3.7 0 0 1-2.86-1.44l-1.57 1.6c.87 1.17 2.67 1.8 4.38 1.8zm9.92 0c2.2 0 3.67-1.3 4.1-2.85l-2.18-.97c-.23.97-.86 1.7-1.9 1.7-1.34 0-2.22-1.03-2.22-2.81 0-1.77.88-2.81 2.21-2.81 1.05 0 1.68.72 1.91 1.69l2.14-1c-.45-1.54-1.89-2.8-4.06-2.8-2.76 0-4.7 2-4.7 4.92 0 2.93 1.94 4.93 4.7 4.93zm8.03-.2v-4.8c0-1.46 1-2.27 2.32-2.27.3 0 .52.01.8.05v-2.47c-.17-.01-.35-.03-.6-.03-1.17 0-2.11.56-2.52 1.38v-1.33h-2.52V37h2.52zm7.25-10.58v-2.34h-2.57v2.34h2.57zM145.72 37v-9.47h-2.52V37h2.52zm4.8 3.2v-4.17c.55.7 1.45 1.17 2.64 1.17 2.61 0 4.12-2.23 4.12-4.93 0-2.69-1.51-4.92-4.12-4.92a3.3 3.3 0 0 0-2.65 1.15v-.97H148V40.2h2.52zm2.05-5.16c-1.21 0-2.11-.9-2.11-2.5V32c0-1.62.9-2.5 2.1-2.5 1.43 0 2.18 1.14 2.18 2.76 0 1.63-.75 2.77-2.17 2.77zm9.6 2.07c.62 0 1.16-.06 1.61-.15v-2.08c-.32.03-.5.05-.86.05-.74 0-1.19-.1-1.19-.92v-4.37h1.93v-2.1h-1.93v-2.7h-2.48v2.7h-1.26v2.1h1.26v4.9c0 1.94 1 2.57 2.91 2.57zm5.86-10.7v-2.33h-2.57v2.34h2.57zM168.01 37v-9.47h-2.52V37h2.52zm6.36.2c2.74 0 4.64-1.98 4.64-4.93 0-2.94-1.9-4.92-4.64-4.92-2.74 0-4.64 1.98-4.64 4.92 0 2.95 1.9 4.93 4.64 4.93zm0-2.09c-1.31 0-2.14-1.04-2.14-2.84 0-1.79.83-2.83 2.14-2.83s2.12 1.04 2.12 2.83c0 1.8-.8 2.84-2.12 2.84zm8.9 1.89v-5.47c0-1.24.86-1.87 1.74-1.87 1.08 0 1.51.75 1.51 1.81V37h2.52v-6.25c0-2.05-1.2-3.4-3.18-3.4-1.21 0-2.07.54-2.6 1.15v-.97h-2.52V37h2.52z"/></g></svg>
