<svg xmlns="http://www.w3.org/2000/svg" xmlns:xlink="http://www.w3.org/1999/xlink" version="1.1" x="0px" y="0px" enable-background="new 0 0 1000 1000" xml:space="preserve" viewBox="9.9 299.8 980 400.5" style="position: static; opacity: 1;">
<metadata> Svg Vector Icons : http://www.onlinewebfonts.com/icon </metadata>
<g><g><g id="Layer_1_copy_6_"><path d="M771.6,432.3c-6.7-13.8-16.6-24.2-31.7-28.4c-23.1-6.4-45.3-4.1-65.4,10c-1.9,1.3-3.8,2.6-6.5,4.5c-5.7-15.1-18-14.8-30.6-13.8c-1.9,0.2-3.8,0-5.6,0c-12.2,0-24.4,0-37.3,0c0,3.3,0,5.9,0,8.4c0,93.4,0,186.8,0,280.2c0,2.3,0.2,4.8,0.3,7.1c26,0,51.9,0,77.9,0c0-25.9,0-51.8,0-77.1c11.6,1.1,22.5,3.1,33.5,3.1c37.6-0.4,60.2-17.7,71.4-53.6c0.5-1.6,0.9-3.1,1.3-4.8c7.5-28.9,7.4-58.3,4.8-87.8C782.1,463.5,778.9,447.3,771.6,432.3z M703.3,553.5c-3.5,17.2-13.7,22-31,15.7c0-4.7,0-9.6,0-14.5c0-28,0.2-56.1-0.1-84.1c0-4.9,1.7-7.4,6-8.8c2.4-0.8,4.8-1.8,7.3-2.6c10.7-3.1,17.6,0.4,19,11.3C708.2,498.1,709,526,703.3,553.5z M464.9,410.8c-0.3,19.3-0.1,38.6-0.1,58.3c-8.7-1.1-16.3-2.2-24.1-3c-3.9-0.3-8-0.1-12,0.4c-16.1,2.1-18.3,4.7-18.3,20.6c0,42.2,0,84.4,0,126.6c0,2.5,0,5.1,0,8c-26.1,0-51.4,0-77.4,0c0-72,0-144,0-216.7c1.6-0.2,3.4-0.6,5.1-0.6c16.7,0,33.5,0.1,50.3-0.1c4.4-0.1,6.9,1.3,8.7,5.3c2.4,5.1,5.4,9.9,8.2,15c14.3-22.7,28.7-28.5,53-22C463,403.9,465,405.7,464.9,410.8z M562,338.9c0,21.7-17.5,39.2-39.2,39.2c0,0-0.1,0-0.1,0c-3.1,0-6.3-0.3-9.5-1.1c-7-1.8-13-5.2-17.8-9.9c-7.3-7.1-11.9-17.1-11.9-28.2c0-19.6,14.4-35.9,33.3-38.7c0.4-0.2,0.9-0.3,1.4-0.4c2.8,0,5.7,0,8.5,0c0.2,0.1,0.4,0.2,0.6,0.3C546.8,302.2,562,318.7,562,338.9z M483.8,404.9c25.9,0,51.2,0,77.1,0c0,72.4,0,144.6,0,217.1c-25.8,0-51.2,0-77.1,0C483.8,549.3,483.8,477.3,483.8,404.9z M984.8,471.1c-2.6-19.4-10.2-37.3-25.1-51.1c-18.1-16.8-40.5-20.3-63.9-19.2c-45.6,2-72.8,22.3-84,63.1c-9.1,33.1-9.1,66.7-0.2,100c8.4,31.8,28.7,52.2,61.7,58.8c29.4,5.9,58.6,4.6,87.5-2.7c16.7-4.2,16.7-4.2,16.7-21.3c0-13.1,0-26.2,0-39.9c-7.2,1.3-13.4,2.4-19.6,3.5c-18.3,3-36.7,6.9-55.4,4c-14.2-2.2-20.6-11.7-18.5-27.1c34.4,0,69,0,105.9,0C988.3,515.6,987.8,493.2,984.8,471.1z M882.5,496.5c1.1-12.1,1.9-23.8,3.4-35.4c0.4-3.3,2.3-6.8,4.5-9.3c7.1-8.2,20-6,22.2,4.5c2.7,12.9,3.1,26.4,4.6,40.2C904.6,496.5,894.3,496.5,882.5,496.5z M274.8,461.4c0,28.8,0,57.6,0,86.3c0,2.3,0,4.8,0.2,7.1c1.2,9.6,4.7,12.9,14.4,12.3c8.5-0.5,16.8-1.8,26-2.8c0,18.6,0,36.5,0,55.2c-26.8,4.9-53.6,10.7-80.8,4c-24.1-5.8-37.4-25.7-37.7-55.5c-0.4-35.2-0.1-70.3-0.1-105.5c0-2.5,0-5,0-8.1c-9.7,0-18.5,0-28,0c0-16.6,0-32.7,0-49.5c9.1,0,18.2,0,27.9,0c2.9-14.5,6-28.5,8.5-42.6c0.9-4.7,2.4-7.3,7.5-8.4c20.4-4.6,40.7-9.7,61.8-14.8c0,21.9,0,43.2,0,65.3c14,0,27.3,0,41.3,0c-3.5,17-6.8,33.1-10.2,49.7c-10.1,0-19.9,0-30.5,0C275,456.9,274.8,459.1,274.8,461.4z M159.4,562.4c-4.1,39-26,59.5-65.4,63.1c-25.5,2.3-50.3-1.1-74.7-8c-2.1-0.5-5.1-3.2-5.2-4.9c-0.4-17.1-0.2-34.4-0.2-52.2c12.5,2.6,24.2,5.6,36.1,7.4c7.4,1.2,15.1,1.5,22.4,0.4c3.8-0.6,8.4-4.3,10.3-7.9c2.6-5,0.2-10.5-4.6-13.5c-6.4-4-13.3-7.1-19.9-10.6c-7.6-4.1-15.7-7.8-22.7-12.7c-13.9-9.8-22-23.6-24.3-40.6c-0.2-1.6-0.9-3.1-1.3-4.7c0-4.2,0-8.5,0-12.7c1.2-5.7,1.9-11.5,3.5-17.1c7.4-26.5,26.8-39.6,52.3-44.7c27.1-5.5,53.9-3.1,80.2,5.3c4.2,1.4,5.9,3.3,5.8,7.9c-0.3,16-0.1,32-0.1,47.8c-13.4-2.5-26.3-5-39.3-7c-5.3-0.8-11.1-1.2-16.1,0.2c-3.6,1-8.6,4.8-9.1,7.9c-0.6,3.7,1.9,9.5,5,11.9c5.7,4.4,12.8,6.8,19.2,10.3c8.3,4.4,17.1,8.2,24.6,13.7C156.7,516.6,161.9,538.4,159.4,562.4z"/></g></g><g/><g/><g/><g/><g/><g/><g/><g/><g/><g/><g/><g/><g/><g/><g/></g>
</svg>